<svg xmlns="http://www.w3.org/2000/svg" width="2612" height="1606" stroke-linecap="round" stroke-linejoin="round" class="tl-container tl-theme__force-sRGB tl-theme__light" data-color-mode="light" style="background-color:transparent" viewBox="3339 410 2612 1606"><g transform="translate(3339 410)scale(1.41495)"><g xmlns="http://www.w3.org/2000/svg" fill="none" stroke="#fff" stroke-linecap="butt" stroke-width="2"><path d="m350.8 637-5.2-13.6q-17-43-110-274l-4.4-10.8c-3.2-7.4-8.8-8.5-17-8.3h-15.3a.4.4 0 0 0-.4.6l132.4 331.4c2.4 6 4.2 8.4 9.3 10.8q2.2 1 8.7 1c9 0 17.1.9 21-8.8l69.8-173.5 3-7.3h.3q9.6 24 26 63.6 2.7 6.2 4.6 7.9c5.4 4.6 10.6 3.8 17.6.7q3.9-1.8 9-3.7a1 1-21.6 0 0 .4-.7q-28.8-70.8-48.4-118-2.4-6-8.2-7c-5.9-1.2-9.7 2.6-11.9 7.8L409 493.5q-17.7 44.6-56.1 140.3l-1.3 3.3a.4.4 0 0 1-.7 0M585.1 497l-.7 1.9q-37.6 93.2-70 174.4a1 1 0 0 0 .3.6q10.6.2 20 .1 9.2 0 12.7-8.8 35.3-87.5 63.2-157.6l.2-.4.8-2 70-174.3a.5.5 0 0 0-.4-.7l-20-.1q-9.2 0-12.7 8.8l-63.2 157.6-.2.4M1457.6 331.1c-27-.5-55.3 7-79.7 19.6q-19 9.7-36.2 24.3-37.8 31.8-53.6 78.6a179 179 0 0 0 7.8 135q14 29.3 37.7 52.3 23.5 23 53.6 35.6 34.7 14.7 70.5 15c50.3.6 98-20.6 132.6-57.4q26-27.5 38.5-63c7.5-21 9.8-43.8 10.8-67.6q.2-6.5-1.4-9.8-3.7-7.6-13.5-7.6l-100.5.1a1 1 0 0 0-.5.5q-.2 7 .3 14.3.6 9.6 8.3 12.7c3.5 1.3 9.8 1 14 1q38.5 0 64.1-.2l.3.3a149 149 0 0 1-38.5 98.2q-10.6 11.3-21 19.2a153 153 0 0 1-89.7 31q-29.3.5-55.2-9a152 152 0 0 1-96-109q-11-50.3 10.7-98.3 6.6-14.7 16.3-27 34.7-44 89-57.5 8.3-2 17.4-3c9.8-1.3 14.8-5.1 14.8-15.8q0-7.5-.3-12a1 1-1 0 0-.6-.5M1048.7 541.4q-20.5.2-66.4-.2c-7.9 0-14.3.5-17.9 7.5-2.4 5-1.4 14.5-1.5 19.9l.3.4h127.3a.4.4-10.9 0 0 .4-.5q-6.9-16.6-16.9-38.7-6.5-14.5-18.8-44.2a6341 6341 0 0 0-50.3-118.2c-3.3-7.5-5.4-13.7-8.3-19-4-7.4-10-7-17.6-7-9 0-15.5-.1-19.3 9.4q-27.7 68-41.9 103.5C899.6 500 871.2 570.3 831 670q-3 7.1-5.8 14.3a.6.6 0 0 0 .6.9l13.9.1c9.4.4 15.3-1 19-10l15.7-39.1 26.5-65.7q27.2-67.3 29-71.4c10-24.1 19.3-48.6 28.5-70.8q10.8-26.2 14-34.5c2.3-5.7 4.4-10 6.2-15.3a.2.2 43.2 0 1 .4 0c13.4 31.6 30.1 68.9 43.8 102.3q8.4 20.2 12.8 30.2 8 18.4 13.3 30a.3.3 0 0 1-.2.4M751.9 383.6a1 1 0 0 0-.6-.6h-12a1 1 0 0 0-.5.6v266a1 1 0 0 0 .6.5h12a1 1 0 0 0 .5-.6V383.6M1197 384a1 1 0 0 0-.8-.8h-11.4a1 1 0 0 0-.7.8v265.4a1 1 0 0 0 .7.8h11.4a1 1 0 0 0 .8-.8V384M485.9 779.6a1 1 0 0 0-.9-1q-12.3-2-16.5-12.6-1.6-4.1-1.5-13.2l-.2-19a1.3 1.3 0 0 0-1.3-1.4H464a1.3 1.3 0 0 0-1.3 1.3v21q.1 8.1 1.4 11.5 5.1 14.7 20.8 16.5a1 1-86.8 0 0 1-.9v-2.2M715.5 782.5c9.5 0 17.8-8 18.1-17.4q.4-11 0-31.7a1 1-.6 0 0-1-.9h-2.1a1 1 0 0 0-.9.9v26q.2 8.2-1.3 11a14 14 0 0 1-12.8 7.8c-5.6 0-10.2-2.8-12.9-7.6q-1.5-2.9-1.5-11.1l-.2-26a1 1 0 0 0-.9-.8H698a1 1 0 0 0-.9.8q-.3 20.8.2 31.8c.5 9.4 8.9 17.3 18.3 17.2M1581.4 782.5c9.4 0 17.8-7.9 18.2-17.3q.4-11.1 0-32a1 1-.3 0 0-.8-.7h-2.2a1 1 0 0 0-.9.8q-.2 17 0 26 0 8.3-1.5 11.2a14 14 0 0 1-12.8 7.7c-5.7 0-10.3-2.9-13-7.7q-1.5-2.9-1.4-11.2.1-9-.1-26a1 1 0 0 0-.9-.8h-2.2a1 1 .2 0 0-.8.8q-.4 20.8 0 32c.5 9.3 8.9 17.2 18.4 17.2M1388 759.4c-1.5 10.4-9.5 20-20.5 19.7q-6.8-.1-11.3-3-12.2-7.7-9.9-23.2.5-3.2 3-6.6 6.3-8.8 16.2-9.4a2 2-1.9 0 0 1.6-1.8v-1a1.5 1.5-3.8 0 0-1.6-1.4q-15.1 2-21.4 14.2a26 26 0 0 0 1 24.7 25.5 25.5 0 0 0 34 8.8 27 27 0 0 0 13.4-24.8 1 1 0 0 0-.8-.8h-14.2a2 2 90 0 0-1.7 1.7v.4a2 2 90 0 0 2 2h9.9a.4.4 4.8 0 1 .4.5M371 758.3a25.3 25.3 0 0 0-25.3-25.3 25.3 25.3 0 0 0-25.3 25.3 25.3 25.3 0 0 0 25.3 25.3 25.3 25.3 0 0 0 25.3-25.3M875 758.2a25.3 25.3 0 0 0-25.2-25.3 25.3 25.3 0 0 0-25.3 25.3 25.3 25.3 0 0 0 25.3 25.3 25.3 25.3 0 0 0 25.3-25.3M1039 758.2a25 25 0 0 0-25.3-25.2 25 25 0 0 0-25.2 25.2 25 25 0 0 0 25.2 25.2 25 25 0 0 0 25.2-25.2M1530.5 758.2a25.3 25.3 0 0 0-25.3-25.3 25.3 25.3 0 0 0-25.3 25.3 25.3 25.3 0 0 0 25.3 25.3 25.3 25.3 0 0 0 25.3-25.3M257.5 757.3a.6.6 0 0 1 1 0l3 7.7a2.6 2.6-21.1 0 0 3.3 1.5h.1a2.3 2.3-26.4 0 0 1-3l-6-14.1a2.4 2.2-13.4 0 0-2.4-1.4q-.8 0-1.1.9-5.7 13-10.9 27.3a.3.3 0 0 1-.5 0l-16.5-40.6a3 3-12.3 0 0-2.6-1.7h-.3a1.4 1.4 0 0 0-1.3 2q8.5 22.4 18.3 45.4c1 2.5 4.1 2.5 5.3-.1q4-8.5 9.6-24M291 736.7a2 2 0 0 0-1.2-2.8 2.2 2.2 0 0 0-3 1.2l-18.1 45a2 2 0 0 0 1.2 2.8 2.2 2.2 0 0 0 3-1.2l18-45M549.8 758.4c0 11.3-8.6 19.6-20 20.2h-10a1.2 1.2 0 0 0-1.1 1.2v1.6a1 1 0 0 0 1 1.2q10 .5 14.3-.4a24 24 0 0 0 19.9-23.8c0-12.5-7.9-21.4-19.7-24q-4.2-1-14.2-.5a1 1 0 0 0-1.1 1.1v1.6a1.2 1.2 0 0 0 1.2 1.2l9.8.1c11.5.7 20 9 20 20.5M942.7 742.3l8.5 39.4a1 1-5.9 0 0 1.2 1h2.3a1 1-6.1 0 0 1-1.1l-9.5-44.7c-.5-2.4-1.2-3.4-3.6-2.7l-.5.3-16.6 27.5a.4.4 0 0 1-.8 0l-16-26.7a3 3 0 0 0-2.7-1.5h-.7a1.4 1.4-15.5 0 0-1.2 2.2l19.5 32.4a1.8 1.8 0 0 0 3.1 0l15.8-26.1a.1.1 0 0 1 .2 0M412.8 766.1c8.2.5 14.8-4 16.9-11.9 1.4-5.4-.4-12.3-4.8-16-5.4-4.8-13.7-4.7-20.7-4a1.5 1.5 0 0 0-1.4 1.5v.5a2 2-1.8 0 0 2.1 2c4.7-.4 13-.6 16.5 2.6 4.8 4 6 10 2.8 15.3-3.5 6-10.6 6.8-17 6.5a1.7 1.7 84.8 0 0-1.5 2q.2 1 .8 1.7 6.7 7.6 16 16.1a3 3-39.4 0 0 3 .3l.3-.2a1.3 1.3 0 0 0 .2-2l-13.6-13.6a.5.5 0 0 1 .4-.8M648.7 740.4h.4l9.3 21a.5.5 0 0 1-.5.7h-9.6a2 2 0 0 0-1.7 1.7v1a1.5 1.5 0 0 0 1.5 1.4h15.2a1.2 1.2-11.9 0 0 1-1.7l-12.6-29-.7-.8q-1.4-1-3.5-.6-1.2.2-2.2 3.1l-5 12.3c-4.3 10.6-8.2 21.3-12.8 31.9a1 1 0 0 0 .8 1.2h2.4a2 2-79.1 0 0 1.4-1l16.5-41.2M795.8 735a1 1 0 0 0-1-1l-27.5.2a1 1 0 0 0-1 .9v2a1 1 0 0 0 1 1l27.6-.2a1 1 0 0 0 1-.9l-.1-2M1100.1 735.2a1.2 1.2 0 0 0-1.1-1.2h-27.2a1.2 1.2 0 0 0-1.2 1.3v1.3a1.2 1.2 0 0 0 1.2 1.2h27.2a1.2 1.2 0 0 0 1.2-1.2v-1.4M1187 782.7q1.6 0 2-.3l.5-.9 18.5-46a1 1 0 0 0-1-1.3h-1.7a2 2 0 0 0-1.5 1q-10 24.7-16.7 41.8h-.3q-6.7-17-16.8-41.8a2 2 0 0 0-1.4-1h-1.8a1 1 0 0 0-.9 1.4l18.4 46 .7.8q.3.3 2 .3M1267.6 735.3a1.3 1.3 0 0 0-1.3-1.2h-27.7a1.3 1.3 0 0 0-1.3 1.2v1a1.3 1.3 0 0 0 1.3 1.3h27.7a1.3 1.3 0 0 0 1.3-1.3v-1M1430.2 766.2c4.8 0 9.5-1 13.1-4.5 5-4.7 5.6-12.2 3.1-18.4-4-10.2-15.4-9.4-24.3-9a1.4 1.4 0 0 0-1.3 1.3v.8a1.4 1.4-1 0 0 1.5 1.4q4.7-.2 9.2.1c7.8.5 13.3 6 12.2 14-1.2 8.8-9.2 11.1-17.4 10.6q-3-.4-2.7 2.3a2 2 0 0 0 .5 1.3l16.5 16.4a2.3 2.3 49.7 0 0 2.9.3l.2-.2a1.5 1.5 0 0 0 .2-2.3l-14-13.5a.4.3-22.7 0 1 .3-.6M1638.5 766q4.7.3 9.2-.7c7.6-1.7 12-9 11.3-16.7q-.6-5.4-3.4-8.6c-5.6-6.7-14.1-6-23-6a1 1 0 0 0-.9.9v1.9a1 1 0 0 0 .9.8c9 0 17.5-.8 21.4 7 3.5 6.8.3 15.4-7.5 17.2q-5.1 1.2-11.4.8a1 1 0 0 0-.7.6v18.3a1 1 0 0 0 .9.9h1.7a1 1 0 0 0 1-1v-15a1 1-88.2 0 1 .5-.4M1133.4 735.4a1 1 0 0 0-1-1h-2a1 1 0 0 0-1 1v46.2a1 1 0 0 0 .9 1h2a1 1 0 0 0 1-1l.1-46.2M1087.1 747.4a1 1 0 0 0-.8-.8h-2.3a1 1 0 0 0-.8.8v34.3a1 1 0 0 0 .8.8h2.3a1 1 0 0 0 .8-.8v-34.3M783 747.4a1 1 0 0 0-.7-.8h-2.8a1 1 0 0 0-.7.8v34.3a1 1 0 0 0 .7.8h2.8a1 1 0 0 0 .7-.8v-34.4M1265.2 757.4a1.3 1.3 0 0 0-1.4-1.4h-25.1a1.3 1.3 0 0 0-1.4 1.4v.5a1.3 1.3 0 0 0 1.4 1.3h25.1a1.3 1.3 0 0 0 1.4-1.3v-.5M1267.6 780.4a1.4 1.4 0 0 0-1.4-1.4h-27.6a1.4 1.4 0 0 0-1.4 1.3v.4a1.4 1.4 0 0 0 1.4 1.4h27.6a1.4 1.4 0 0 0 1.4-1.3v-.4" vector-effect="non-scaling-stroke"/><path d="M366.6 758.3a21 21 0 0 0-20.9-21 21 21 0 0 0-20.9 21 21 21 0 0 0 21 20.9 21 21 0 0 0 20.8-21M870.7 758.4a21 21 0 0 0-20.9-21 21 21 0 0 0-20.9 21 21 21 0 0 0 21 20.9 21 21 0 0 0 20.8-21M1016 737.2a21 20.8-83.3 0 0-23.1 18.5 21 20.8-83.3 0 0 18.2 23.3 21 20.8-83.3 0 0 23-18.4 21 20.8-83.3 0 0-18.1-23.4M1526 758.2a21 21 0 0 0-20.9-21 21 21 0 0 0-21 21 21 21 0 0 0 21 21 21 21 0 0 0 21-21" vector-effect="non-scaling-stroke"/></g><path xmlns="http://www.w3.org/2000/svg" fill="#fff" d="M350.8 637a.4.4 0 0 0 .7 0l1.3-3.3q38.4-95.7 56.1-140.4l23.3-58.2c2-5.2 6-9 11.8-7.8q5.8 1 8.2 7 19.6 47.2 48.4 118a1 1-21.6 0 1-.4.7l-9 3.7c-7 3.1-12.2 3.9-17.6-.7q-2-1.7-4.5-7.9-16.5-39.5-26.1-63.6a.2.2 0 0 0-.4 0l-3 7.3L370 665.3c-3.9 9.7-12 8.9-21 8.8q-6.5 0-8.7-1c-5.1-2.4-7-4.9-9.3-10.8L198.5 330.9a.4.4 0 0 1 .4-.6h15.3c8.2-.2 13.8.9 17 8.3q2 4.5 4.4 10.7 93 231.1 110 274.1zM585.1 497l.2-.5L648.5 339q3.5-8.8 12.6-8.8l20 .1a.5.5 0 0 1 .5.7l-70 174.4-.8 2-.2.3-63.2 157.6q-3.5 8.8-12.6 8.8l-20-.1a.5.5 0 0 1-.5-.6l70-174.4zM1458.2 331.7q.3 4.4.3 11.9c0 10.7-5 14.5-14.8 15.7q-9 1.1-17.4 3-54.3 13.5-89 57.7-9.7 12.2-16.3 27-21.7 47.9-10.7 98.3c10.9 50 48 91.2 96 108.9q25.9 9.5 55.2 9a153 153 0 0 0 89.7-31q10.4-7.9 21-19.2c25-27 37.4-61.6 38.5-98.2l-.3-.3q-25.7.2-64.1.2c-4.2 0-10.5.3-14-1q-7.7-3.1-8.3-12.7-.5-7.3-.3-14.3a1 1 0 0 1 .5-.5l100.5-.1q9.8 0 13.5 7.6 1.6 3.3 1.3 9.8c-.9 23.8-3.2 46.7-10.7 67.7q-12.5 35.4-38.5 62.9a180 180 0 0 1-132.6 57.5q-35.8-.4-70.5-15-30-12.7-53.6-35.7t-37.7-52.2a179 179 0 0 1-7.8-135.1q15.8-46.8 53.6-78.7 17.3-14.5 36.2-24.2a172 172 0 0 1 79.7-19.6 1 1-1 0 1 .6.6M1048.7 541.4l.2-.3-13.3-30q-4.4-10-12.8-30.3c-13.7-33.4-30.4-70.7-43.8-102.3a.2.2 43.2 0 0-.4 0c-1.8 5.4-4 9.6-6.2 15.3q-3.2 8.3-14 34.5c-9.2 22.2-18.5 46.7-28.5 70.8q-1.8 4-29 71.4-15.6 38.3-26.5 65.7l-15.7 39c-3.7 9-9.6 10.5-19 10.1l-13.9-.1a.6.6 0 0 1-.6-.9L831 670c40.2-99.6 68.6-170 86.8-215.7q14.2-35.5 41.9-103.5c3.8-9.5 10.3-9.3 19.3-9.4 7.6 0 13.6-.4 17.6 7 2.9 5.3 5 11.5 8.3 19 14 32 33.8 78 50.3 118.2q12.3 29.7 18.8 44.2 10 22 16.9 38.7a.4.4-10.9 0 1-.4.5H963.2l-.3-.4c0-5.4-1-14.9 1.5-19.9 3.6-7 10-7.6 18-7.5q45.8.4 66.3.2"/><rect xmlns="http://www.w3.org/2000/svg" width="13.1" height="267.1" x="738.8" y="383" fill="#fff" rx=".6"/><rect xmlns="http://www.w3.org/2000/svg" width="12.9" height="266.9" x="1184.1" y="383.2" fill="#fff" rx=".8"/><path xmlns="http://www.w3.org/2000/svg" fill="#fff" d="M484.9 782.7q-15.7-1.8-20.8-16.5-1.3-3.4-1.4-11.5v-21a1.3 1.3 0 0 1 1.3-1.3h1.5a1.3 1.3 0 0 1 1.3 1.3q.3 15.7.2 19.1-.1 9 1.5 13.2 4.2 10.7 16.5 12.6a1 1 0 0 1 .9 1v2.2a1 1-86.8 0 1-1 1M715.5 782.5c-9.4 0-17.8-7.8-18.3-17.2q-.5-11-.2-31.8a1 1 0 0 1 .9-.8h2.1a1 1 0 0 1 .9.8q.3 17 .2 26 0 8.2 1.5 11c2.6 4.9 7.3 7.8 12.9 7.7s10.2-3 12.8-7.8q1.5-2.8 1.4-11-.2-9.1 0-26a1 1 0 0 1 .8-.9h2.2a1 1-.6 0 1 .8.9q.5 20.7.1 31.8a18.5 18.5 0 0 1-18 17.3M1581.4 778.2c5.6 0 10.2-3 12.8-7.7q1.5-3 1.4-11.2l.1-26a1 1 0 0 1 .9-.8h2.2a1 1-.3 0 1 .8.8q.4 20.8 0 31.9a18.5 18.5 0 0 1-18.2 17.3c-9.5 0-18-7.9-18.3-17.3q-.5-11-.1-31.9a1 1 .2 0 1 .8-.8h2.2a1 1 0 0 1 .9.8q.2 17 .1 26 0 8.3 1.5 11.2c2.6 4.8 7.2 7.7 12.9 7.7M1388 759.4a.4.4 4.8 0 0-.3-.5h-9.9a2 2 90 0 1-2-2v-.4a2 2 90 0 1 1.7-1.7h14.2a1 1 0 0 1 .8.8c.2 10-4.5 19.9-13.3 24.8a25.5 25.5 0 0 1-34-8.8 26 26 0 0 1-1.1-24.7q6.3-12.2 21.4-14.2a1.5 1.5-3.8 0 1 1.6 1.4v1a2 2-1.9 0 1-1.6 1.8q-9.9.6-16.2 9.4-2.5 3.4-3 6.6-2.3 15.5 9.9 23.2 4.5 2.9 11.3 3c11 .3 19-9.3 20.6-19.7M371 758.3a25.3 25.3 0 0 1-25.3 25.3 25.3 25.3 0 0 1-25.3-25.3 25.3 25.3 0 0 1 25.3-25.3 25.3 25.3 0 0 1 25.3 25.3m-4.4 0a21 21 0 0 0-20.9-21 21 21 0 0 0-20.9 21 21 21 0 0 0 21 20.9 21 21 0 0 0 20.8-21M875 758.2a25.3 25.3 0 0 1-25.2 25.3 25.3 25.3 0 0 1-25.3-25.3 25.3 25.3 0 0 1 25.3-25.3 25.3 25.3 0 0 1 25.3 25.3m-4.3.2a21 21 0 0 0-20.9-21 21 21 0 0 0-20.9 21 21 21 0 0 0 21 20.9 21 21 0 0 0 20.8-21M1039 758.2a25 25 0 0 1-25.3 25.2 25 25 0 0 1-25.2-25.2 25 25 0 0 1 25.2-25.2 25 25 0 0 1 25.2 25.2m-23-21a21 20.8-83.3 0 0-23.1 18.5 21 20.8-83.3 0 0 18.2 23.3 21 20.8-83.3 0 0 23-18.4 21 20.8-83.3 0 0-18.1-23.4M1530.5 758.2a25.3 25.3 0 0 1-25.3 25.3 25.3 25.3 0 0 1-25.3-25.3 25.3 25.3 0 0 1 25.3-25.3 25.3 25.3 0 0 1 25.3 25.3m-4.4 0a21 21 0 0 0-21-21 21 21 0 0 0-21 21 21 21 0 0 0 21 21 21 21 0 0 0 21-21M257.5 757.3q-5.6 15.4-9.6 23.9c-1.2 2.6-4.3 2.6-5.3 0q-9.8-23-18.3-45.4a1.4 1.4 0 0 1 1.3-1.9h.3a3 3-12.3 0 1 2.6 1.7l16.5 40.6a.3.3 0 0 0 .5 0q5.2-14.3 10.9-27.3.3-.9 1.1-1a2.4 2.2-13.4 0 1 2.5 1.5q2 5 6 14.2a2.3 2.3-26.4 0 1-1 2.8h-.2a2.6 2.6-21.1 0 1-3.4-1.4l-2.9-7.7a.6.6 0 0 0-1 0"/><rect xmlns="http://www.w3.org/2000/svg" width="4.4" height="52.9" x="-2.2" y="-26.4" fill="#fff" rx="2.2" transform="rotate(22 -1811 1099)"/><path xmlns="http://www.w3.org/2000/svg" fill="#fff" d="M553.9 758.4c0 12.4-8 21.3-20 23.8q-4.1 1-14.1.4a1.2 1.2 0 0 1-1.1-1.2v-1.6a1.2 1.2 0 0 1 1.2-1.1h9.8c11.5-.7 20-9 20.1-20.3 0-11.4-8.4-19.8-19.9-20.5l-9.8-.1a1.2 1.2 0 0 1-1.2-1.2V735a1 1 0 0 1 1.1-1.1q10-.5 14.2.5a24 24 0 0 1 19.7 24M942.7 742.3a.1.1 0 0 0-.2 0l-15.8 26a1.8 1.8 0 0 1-3.1 0L904 736a1.4 1.4-15.5 0 1 1.2-2.2h.7a3 3 0 0 1 2.7 1.5l16 26.7a.4.4 0 0 0 .8 0l16.6-27.5.5-.3c2.4-.7 3.1.3 3.6 2.7l9.4 44.7a1 1-6.1 0 1-.9 1h-2.3a1 1-5.9 0 1-1.2-.9zM412.8 766.1a.5.5 0 0 0-.4.8l13.6 13.6a1.3 1.3 0 0 1-.2 2l-.3.2a3 3-39.4 0 1-3-.3q-9.3-8.5-16-16.1-.6-.7-.8-1.7a1.7 1.7 84.8 0 1 1.6-2c6.3.3 13.4-.5 16.9-6.5 3.1-5.4 2-11.3-2.8-15.3-3.6-3.2-11.8-3-16.5-2.7a2 2-1.8 0 1-2-1.9v-.5a1.5 1.5 0 0 1 1.3-1.5c7-.7 15.3-.8 20.7 4a17 17 0 0 1 4.8 16c-2 7.9-8.7 12.4-16.9 11.9M648.7 740.4 632 781.6a2 2-79.1 0 1-1.4 1h-2.4a1 1 0 0 1-.8-1.2c4.6-10.6 8.5-21.3 12.8-32q4.7-11.2 5-12.2 1-2.9 2.2-3 2-.5 3.5.5l.6.8 12.8 29a1.2 1.2-11.9 0 1-1.1 1.7H648a1.5 1.5 0 0 1-1.5-1.5v-1a2 2 0 0 1 1.7-1.6h9.6a.5.5 0 0 0 .5-.7l-9.3-21a.3.3 44.7 0 0-.5 0"/><rect xmlns="http://www.w3.org/2000/svg" width="29.4" height="3.9" x="-14.7" y="-2" fill="#fff" rx=".9" transform="rotate(-.3 140965.4 -148808.8)"/><rect xmlns="http://www.w3.org/2000/svg" width="29.5" height="3.7" x="-14.8" y="-1.9" fill="#fff" rx="1.2" transform="rotate(-.1 422193.7 -621508.8)"/><path xmlns="http://www.w3.org/2000/svg" fill="#fff" d="M1187 777h.1q6.7-17 16.8-41.8a2 2 0 0 1 1.4-1h1.7a1 1 0 0 1 1 1.4l-18.5 46-.6.8q-.3.3-2 .3t-2-.3l-.6-.9-18.4-46a1 1 0 0 1 1-1.3h1.7a2 2 0 0 1 1.4 1q10.1 24.8 16.8 41.8z"/><rect xmlns="http://www.w3.org/2000/svg" width="30.3" height="3.6" x="1237.3" y="734" fill="#fff" rx="1.3"/><path xmlns="http://www.w3.org/2000/svg" fill="#fff" d="M1430.2 766.2a.4.3-22.7 0 0-.3.6l14 13.5a1.5 1.5 0 0 1-.2 2.3l-.2.2a2.3 2.3 49.7 0 1-3-.3l-16.4-16.4a2 2 0 0 1-.5-1.3c-.1-2 .7-2.4 2.7-2.3 8.2.5 16.2-1.8 17.4-10.5 1.1-8-4.4-13.6-12.2-14.1q-4.5-.3-9.2-.1a1.4 1.4-1 0 1-1.5-1.4v-.8a1.4 1.4 0 0 1 1.3-1.3c8.9-.4 20.3-1.2 24.3 9 2.5 6.2 1.9 13.7-3 18.4a18 18 0 0 1-13.2 4.5M1638.5 766a1 1-88.2 0 0-.5.5v15a1 1 0 0 1-1 .9h-1.7a1 1 0 0 1-1-1v-18.1a1 1 0 0 1 .8-.7q6.3.4 11.5-.8c7.8-1.8 10.9-10.4 7.4-17.2-4-7.8-12.4-7-21.4-7a1 1 0 0 1-.9-.9V735a1 1 0 0 1 .8-.8c9 0 17.5-.8 23 5.9q2.9 3.3 3.5 8.6c.8 7.7-3.7 15-11.3 16.7q-4.5 1-9.2.7"/><rect xmlns="http://www.w3.org/2000/svg" width="4" height="48.2" x="-2" y="-24.1" fill="#fff" rx=".9" transform="rotate(.1 -434022.7 648612)"/><circle xmlns="http://www.w3.org/2000/svg" cx="345.7" cy="758.3" r="20.9" fill="#fff"/><circle xmlns="http://www.w3.org/2000/svg" cx="849.8" cy="758.4" r="20.9" fill="#fff"/><ellipse xmlns="http://www.w3.org/2000/svg" fill="#fff" rx="21" ry="20.8" transform="rotate(-83.3 933 -190.7)"/><circle xmlns="http://www.w3.org/2000/svg" cx="1505.1" cy="758.2" r="20.9" fill="#fff"/><rect xmlns="http://www.w3.org/2000/svg" width="4" height="35.9" x="1083.2" y="746.6" fill="#fff" rx=".8"/><rect xmlns="http://www.w3.org/2000/svg" width="4.3" height="35.8" x="778.8" y="746.6" fill="#fff" rx=".7"/><rect xmlns="http://www.w3.org/2000/svg" width="27.8" height="3.2" x="1237.3" y="756" fill="#fff" rx="1.3"/><rect xmlns="http://www.w3.org/2000/svg" width="30.4" height="3.2" x="-15.2" y="-1.6" fill="#fff" rx="1.4" transform="rotate(.2 -222984.7 359179)"/></g></svg>