<svg xmlns="http://www.w3.org/2000/svg" direction="ltr" width="2612" height="1605.9696641386781" viewBox="3339 410 2612 1605.9696641386781" stroke-linecap="round" stroke-linejoin="round" data-color-mode="light" class="tl-container tl-theme__force-sRGB tl-theme__light" style="background-color: transparent;"><defs/><g transform="matrix(1, 0, 0, 1, 3339, 410)" opacity="1"><g transform="scale(1.4149512459371614, 1.4149512459371614)"><g>
<g xmlns="http://www.w3.org/2000/svg" stroke-width="2.00" fill="none" stroke-linecap="butt">
<path stroke="#D4B577" vector-effect="non-scaling-stroke" d="   M 350.82 637.03   Q 346.08 624.50 345.65 623.42   Q 328.54 580.40 235.60 349.34   Q 233.11 343.13 231.16 338.57   C 227.98 331.16 222.39 330.06 214.15 330.32   Q 212.53 330.37 198.87 330.28   A 0.43 0.43 0.0 0 0 198.47 330.87   Q 251.80 464.33 330.92 662.30   C 333.28 668.21 335.09 670.69 340.23 673.09   Q 342.42 674.10 348.92 674.13   C 357.88 674.16 366.00 674.98 369.88 665.33   Q 389.69 616.05 439.66 491.78   Q 441.25 487.82 442.64 484.50   A 0.18 0.18 0.0 0 1 442.97 484.50   Q 452.61 508.57 469.08 548.12   Q 471.66 554.33 473.59 555.97   C 479.03 560.60 484.23 559.84 491.24 556.68   Q 495.09 554.94 500.24 553.03   A 0.58 0.57 -21.6 0 0 500.57 552.27   Q 471.81 481.46 452.22 434.29   Q 449.76 428.37 444.03 427.26   C 438.14 426.12 434.25 429.89 432.15 435.15   Q 417.37 472.18 408.95 493.35   Q 391.18 538.05 352.78 633.70   Q 352.27 634.98 351.54 637.02   A 0.38 0.38 0.0 0 1 350.82 637.03"/>
<path stroke="#D4B577" vector-effect="non-scaling-stroke" d="   M 585.13 496.93   Q 584.74 497.90 584.35 498.85   Q 546.78 592.09 514.31 673.26   A 0.47 0.47 0.0 0 0 514.74 673.90   Q 525.26 674.08 534.77 674.04   Q 543.88 673.99 547.42 665.21   Q 582.65 577.68 610.61 507.62   Q 610.69 507.41 610.77 507.21   Q 611.17 506.24 611.55 505.28   Q 649.12 412.04 681.59 330.87   A 0.47 0.47 0.0 0 0 681.16 330.23   Q 670.64 330.05 661.13 330.09   Q 652.02 330.14 648.48 338.92   Q 613.25 426.45 585.30 496.51   Q 585.21 496.72 585.13 496.93"/>
<path stroke="#D4B577" vector-effect="non-scaling-stroke" d="   M 1457.63 331.10   C 1430.59 330.62 1402.26 338.17 1377.90 350.68   Q 1358.97 360.42 1341.69 374.95   Q 1303.90 406.76 1288.08 453.60   C 1273.09 497.98 1275.51 546.45 1295.89 588.66   Q 1309.99 617.88 1333.58 640.91   Q 1357.14 663.91 1387.16 676.55   Q 1421.87 691.16 1457.72 691.56   C 1508.00 692.11 1555.71 670.89 1590.34 634.10   Q 1616.25 606.57 1628.83 571.19   C 1636.29 550.19 1638.63 527.30 1639.55 503.52   Q 1639.80 497.02 1638.19 493.70   Q 1634.50 486.09 1624.75 486.09   Q 1545.58 486.10 1524.16 486.22   A 0.48 0.48 0.0 0 0 1523.68 486.69   Q 1523.55 493.67 1523.99 500.96   Q 1524.57 510.59 1532.33 513.66   C 1535.80 515.03 1542.07 514.71 1546.28 514.71   Q 1584.75 514.68 1610.44 514.50   A 0.27 0.27 0.0 0 1 1610.71 514.78   C 1609.60 551.39 1597.21 585.96 1572.18 612.97   Q 1561.64 624.34 1551.24 632.23   C 1525.71 651.60 1494.11 662.74 1461.50 663.26   Q 1432.16 663.72 1406.34 654.20   C 1358.23 636.46 1321.17 595.23 1310.27 545.29   Q 1299.25 494.88 1320.96 446.94   Q 1327.64 432.21 1337.26 419.98   Q 1372.04 375.82 1426.34 362.36   C 1431.80 361.00 1437.66 360.11 1443.74 359.34   C 1453.48 358.10 1458.53 354.29 1458.49 343.59   Q 1458.47 336.11 1458.22 331.66   A 0.60 0.59 -1.0 0 0 1457.63 331.10"/>
<path stroke="#D4B577" vector-effect="non-scaling-stroke" d="   M 1048.70 541.41   Q 1028.16 541.62 982.34 541.22   C 974.40 541.15 967.96 541.68 964.43 548.74   C 961.95 553.71 962.97 563.25 962.86 568.60   A 0.37 0.36 0.8 0 0 963.23 568.97   L 1090.54 568.97   A 0.37 0.36 -10.9 0 0 1090.88 568.47   Q 1084.02 551.86 1074.01 529.79   Q 1067.45 515.30 1055.23 485.60   C 1038.65 445.31 1018.88 399.35 1004.91 367.40   C 1001.61 359.87 999.46 353.67 996.58 348.37   C 992.57 340.99 986.60 341.33 979.00 341.40   C 970.02 341.49 963.54 341.26 959.68 350.75   Q 932.02 418.76 917.83 454.28   C 899.56 499.98 871.16 570.39 830.96 669.96   Q 828.06 677.14 825.24 684.30   A 0.64 0.64 0.0 0 0 825.83 685.17   Q 839.01 685.30 839.65 685.32   C 849.12 685.66 855.05 684.27 858.71 675.21   Q 861.44 668.49 874.36 636.19   Q 885.34 608.77 900.87 570.47   Q 928.14 503.19 929.85 499.07   C 939.89 474.99 949.24 450.52 958.40 428.26   Q 969.15 402.10 972.42 393.78   C 974.66 388.05 976.81 383.87 978.61 378.52   A 0.22 0.21 43.2 0 1 979.01 378.51   C 992.38 410.08 1009.11 447.38 1022.84 480.76   Q 1031.18 501.03 1035.59 511.04   Q 1043.69 529.41 1048.93 541.06   A 0.25 0.25 0.0 0 1 1048.70 541.41"/>
<path stroke="#D4B577" vector-effect="non-scaling-stroke" d="   M 751.90 383.60   A 0.57 0.57 0.0 0 0 751.33 383.03   L 739.37 383.03   A 0.57 0.57 0.0 0 0 738.80 383.60   L 738.80 649.54   A 0.57 0.57 0.0 0 0 739.37 650.11   L 751.33 650.11   A 0.57 0.57 0.0 0 0 751.90 649.54   L 751.90 383.60"/>
<path stroke="#D4B577" vector-effect="non-scaling-stroke" d="   M 1196.98 383.99   A 0.75 0.75 0.0 0 0 1196.23 383.24   L 1184.81 383.24   A 0.75 0.75 0.0 0 0 1184.06 383.99   L 1184.06 649.43   A 0.75 0.75 0.0 0 0 1184.81 650.18   L 1196.23 650.18   A 0.75 0.75 0.0 0 0 1196.98 649.43   L 1196.98 383.99"/>
<path stroke="#D4B577" vector-effect="non-scaling-stroke" d="   M 485.86 779.63   A 1.02 1.02 0.0 0 0 485.00 778.62   Q 472.71 776.66 468.54 766.04   Q 466.90 761.87 467.04 752.80   Q 467.09 749.39 466.84 733.71   A 1.32 1.32 0.0 0 0 465.52 732.41   L 464.03 732.41   A 1.30 1.30 0.0 0 0 462.73 733.70   Q 462.60 744.23 462.74 754.75   Q 462.84 762.80 464.05 766.23   Q 469.24 780.93 484.89 782.71   A 0.88 0.87 -86.8 0 0 485.86 781.84   L 485.86 779.63"/>
<path stroke="#D4B577" vector-effect="non-scaling-stroke" d="   M 715.52 782.51   C 724.98 782.46 733.30 774.55 733.63 765.15   Q 734.02 754.06 733.52 733.35   A 0.85 0.84 -0.6 0 0 732.67 732.53   L 730.49 732.54   A 0.84 0.84 0.0 0 0 729.65 733.37   Q 729.53 750.28 729.67 759.31   Q 729.80 767.56 728.28 770.43   C 725.72 775.28 721.15 778.21 715.50 778.24   C 709.85 778.27 705.25 775.38 702.64 770.56   Q 701.09 767.71 701.14 759.46   Q 701.18 750.43 700.88 733.52   A 0.84 0.84 0.0 0 0 700.04 732.70   L 697.85 732.71   A 0.85 0.84 -0.0 0 0 697.01 733.54   Q 696.73 754.26 697.23 765.34   C 697.66 774.74 706.07 782.56 715.52 782.51"/>
<path stroke="#D4B577" vector-effect="non-scaling-stroke" d="   M 1581.37 782.51   C 1590.85 782.50 1599.22 774.60 1599.59 765.17   Q 1600.03 754.06 1599.61 733.29   A 0.85 0.84 -0.3 0 0 1598.76 732.46   L 1596.57 732.46   A 0.84 0.84 0.0 0 0 1595.73 733.29   Q 1595.54 750.25 1595.64 759.30   Q 1595.74 767.57 1594.21 770.45   C 1591.62 775.29 1587.03 778.22 1581.36 778.23   C 1575.69 778.24 1571.09 775.32 1568.49 770.48   Q 1566.95 767.61 1567.03 759.34   Q 1567.11 750.29 1566.88 733.33   A 0.84 0.84 0.0 0 0 1566.04 732.50   L 1563.85 732.50   A 0.85 0.84 0.2 0 0 1563.00 733.34   Q 1562.63 754.11 1563.09 765.22   C 1563.49 774.64 1571.88 782.52 1581.37 782.51"/>
<path stroke="#D4B577" vector-effect="non-scaling-stroke" d="   M 1388.08 759.38   C 1386.45 769.77 1378.52 779.39 1367.53 779.14   Q 1360.66 778.99 1356.16 776.12   Q 1344.02 768.38 1346.33 752.90   Q 1346.81 749.70 1349.28 746.26   Q 1355.63 737.47 1365.45 736.85   A 1.79 1.78 -1.9 0 0 1367.12 735.07   L 1367.12 734.11   A 1.47 1.46 -3.8 0 0 1365.46 732.66   Q 1350.36 734.68 1344.08 746.90   C 1340.11 754.62 1340.83 764.15 1345.19 771.57   C 1352.06 783.28 1367.61 786.76 1379.17 780.36   C 1388.00 775.48 1392.69 765.56 1392.47 755.58   A 0.82 0.82 0.0 0 0 1391.65 754.78   L 1377.51 754.78   A 1.68 1.67 90.0 0 0 1375.84 756.46   L 1375.84 756.92   A 1.99 1.98 90.0 0 0 1377.82 758.91   L 1387.68 758.91   A 0.41 0.40 4.8 0 1 1388.08 759.38"/>
<path stroke="#D4B577" vector-effect="non-scaling-stroke" d="   M 371.01 758.27   A 25.29 25.29 0.0 0 0 345.72 732.98   A 25.29 25.29 0.0 0 0 320.43 758.27   A 25.29 25.29 0.0 0 0 345.72 783.56   A 25.29 25.29 0.0 0 0 371.01 758.27"/>
<path stroke="#D4B577" vector-effect="non-scaling-stroke" d="   M 875.09 758.22   A 25.28 25.28 0.0 0 0 849.81 732.94   A 25.28 25.28 0.0 0 0 824.53 758.22   A 25.28 25.28 0.0 0 0 849.81 783.50   A 25.28 25.28 0.0 0 0 875.09 758.22"/>
<path stroke="#D4B577" vector-effect="non-scaling-stroke" d="   M 1038.93 758.21   A 25.20 25.20 0.0 0 0 1013.73 733.01   A 25.20 25.20 0.0 0 0 988.53 758.21   A 25.20 25.20 0.0 0 0 1013.73 783.41   A 25.20 25.20 0.0 0 0 1038.93 758.21"/>
<path stroke="#D4B577" vector-effect="non-scaling-stroke" d="   M 1530.52 758.16   A 25.29 25.29 0.0 0 0 1505.23 732.87   A 25.29 25.29 0.0 0 0 1479.94 758.16   A 25.29 25.29 0.0 0 0 1505.23 783.45   A 25.29 25.29 0.0 0 0 1530.52 758.16"/>
<path stroke="#D4B577" vector-effect="non-scaling-stroke" d="   M 257.50 757.26   A 0.55 0.55 0.0 0 1 258.53 757.25   L 261.42 764.98   A 2.61 2.60 -21.1 0 0 264.82 766.48   L 264.95 766.43   A 2.26 2.25 -26.4 0 0 265.92 763.56   Q 261.94 754.33 259.96 749.35   A 2.39 2.24 -13.4 0 0 257.53 747.96   Q 256.73 748.05 256.37 748.88   Q 250.72 761.94 245.54 776.24   A 0.31 0.31 0.0 0 1 244.97 776.25   L 228.46 735.57   A 2.68 2.67 -12.3 0 0 225.87 733.91   L 225.60 733.92   A 1.40 1.40 0.0 0 0 224.34 735.81   Q 232.76 758.26 242.56 781.25   C 243.63 783.76 246.70 783.83 247.95 781.16   Q 251.93 772.66 257.50 757.26"/>
<path stroke="#D4B577" vector-effect="non-scaling-stroke" d="   M 290.9863 736.7481   A 2.19 2.19 0.0 0 0 289.7762 733.8972   L 289.7205 733.8747   A 2.19 2.19 0.0 0 0 286.8696 735.0849   L 268.6937 780.0719   A 2.19 2.19 0.0 0 0 269.9038 782.9228   L 269.9595 782.9453   A 2.19 2.19 0.0 0 0 272.8104 781.7351   L 290.9863 736.7481"/>
<path stroke="#D4B577" vector-effect="non-scaling-stroke" d="   M 549.83 758.36   C 549.78 769.74 541.20 778.04 529.73 778.61   Q 526.89 778.75 519.88 778.65   A 1.18 1.18 0.0 0 0 518.68 779.83   L 518.68 781.43   A 1.16 1.16 0.0 0 0 519.78 782.59   Q 529.79 783.12 533.97 782.22   C 545.86 779.68 553.81 770.84 553.87 758.38   C 553.93 745.92 546.05 737.01 534.18 734.36   Q 530.02 733.42 520.00 733.86   A 1.16 1.16 0.0 0 0 518.89 735.01   L 518.88 736.61   A 1.18 1.18 0.0 0 0 520.07 737.80   Q 527.08 737.77 529.92 737.93   C 541.38 738.60 549.89 746.98 549.83 758.36"/>
<path stroke="#D4B577" vector-effect="non-scaling-stroke" d="   M 942.68 742.31   L 951.24 781.71   A 1.21 1.20 -5.9 0 0 952.42 782.66   L 954.72 782.66   A 0.92 0.91 -6.1 0 0 955.62 781.56   Q 950.25 756.14 946.23 736.93   C 945.72 734.47 945.02 733.51 942.61 734.18   A 0.88 0.88 0.0 0 0 942.11 734.55   L 925.50 762.01   A 0.44 0.44 0.0 0 1 924.74 762.01   L 908.68 735.32   A 3.12 3.12 0.0 0 0 906.01 733.81   L 905.34 733.81   A 1.43 1.42 -15.5 0 0 904.11 735.97   L 923.59 768.35   A 1.83 1.83 0.0 0 0 926.72 768.35   L 942.49 742.28   A 0.10 0.10 0.0 0 1 942.68 742.31"/>
<path stroke="#D4B577" vector-effect="non-scaling-stroke" d="   M 412.80 766.10   C 421.00 766.65 427.65 762.09 429.68 754.22   C 431.08 748.79 429.29 741.86 424.94 738.11   C 419.53 733.44 411.19 733.53 404.20 734.24   A 1.52 1.52 0.0 0 0 402.84 735.75   L 402.84 736.20   A 1.95 1.94 -1.8 0 0 404.91 738.14   C 409.60 737.85 417.81 737.64 421.44 740.76   C 426.16 744.80 427.33 750.72 424.19 756.11   C 420.72 762.08 413.65 762.92 407.29 762.59   A 1.68 1.60 84.8 0 0 405.67 764.63   Q 405.88 765.56 406.49 766.26   Q 413.21 773.87 422.45 782.40   A 2.54 2.53 -39.4 0 0 425.50 782.69   L 425.75 782.54   A 1.33 1.33 0.0 0 0 426.03 780.45   L 412.45 766.87   A 0.45 0.45 0.0 0 1 412.80 766.10"/>
<path stroke="#D4B577" vector-effect="non-scaling-stroke" d="   M 648.65 740.37   A 0.26 0.25 44.7 0 1 649.12 740.37   L 658.35 761.38   A 0.50 0.50 0.0 0 1 657.89 762.09   L 648.29 762.09   A 1.68 1.68 0.0 0 0 646.61 763.77   L 646.61 764.75   A 1.47 1.47 0.0 0 0 648.08 766.22   L 663.28 766.22   A 1.21 1.20 -11.9 0 0 664.39 764.53   L 651.65 735.52   A 2.03 2.02 5.4 0 0 650.96 734.69   Q 649.58 733.73 647.53 734.11   Q 646.25 734.34 645.31 737.20   Q 644.99 738.19 640.34 749.46   C 635.95 760.08 632.14 770.75 627.53 781.35   A 0.87 0.87 0.0 0 0 628.33 782.57   L 630.71 782.57   A 1.56 1.55 -79.1 0 0 632.15 781.59   L 648.65 740.37"/>
<path stroke="#D4B577" vector-effect="non-scaling-stroke" d="   M 795.8044 734.9329   A 0.92 0.92 0.0 0 0 794.8795 734.0178   L 767.2799 734.1623   A 0.92 0.92 0.0 0 0 766.3648 735.0871   L 766.3756 737.1671   A 0.92 0.92 0.0 0 0 767.3005 738.0822   L 794.9001 737.9377   A 0.92 0.92 0.0 0 0 795.8152 737.0129   L 795.8044 734.9329"/>
<path stroke="#D4B577" vector-effect="non-scaling-stroke" d="   M 1100.1488 735.2242   A 1.18 1.18 0.0 0 0 1098.9668 734.0463   L 1071.7868 734.0937   A 1.18 1.18 0.0 0 0 1070.6089 735.2758   L 1070.6112 736.6158   A 1.18 1.18 0.0 0 0 1071.7932 737.7937   L 1098.9732 737.7463   A 1.18 1.18 0.0 0 0 1100.1511 736.5642   L 1100.1488 735.2242"/>
<path stroke="#D4B577" vector-effect="non-scaling-stroke" d="   M 1186.95 782.71   Q 1188.58 782.71 1188.91 782.43   A 2.30 2.27 -9.5 0 0 1189.55 781.54   L 1207.95 735.57   A 0.98 0.98 0.0 0 0 1207.04 734.22   L 1205.30 734.22   A 1.57 1.57 0.0 0 0 1203.85 735.19   Q 1193.77 759.94 1187.13 776.95   Q 1187.07 777.09 1186.95 777.09   Q 1186.82 777.09 1186.76 776.95   Q 1180.11 759.95 1170.01 735.20   A 1.57 1.57 0.0 0 0 1168.56 734.23   L 1166.82 734.24   A 0.98 0.98 0.0 0 0 1165.91 735.59   L 1184.35 781.54   A 2.30 2.27 9.5 0 0 1184.99 782.43   Q 1185.32 782.71 1186.95 782.71"/>
<path stroke="#D4B577" vector-effect="non-scaling-stroke" d="   M 1267.56 735.34   A 1.29 1.29 0.0 0 0 1266.27 734.05   L 1238.57 734.05   A 1.29 1.29 0.0 0 0 1237.28 735.34   L 1237.28 736.34   A 1.29 1.29 0.0 0 0 1238.57 737.63   L 1266.27 737.63   A 1.29 1.29 0.0 0 0 1267.56 736.34   L 1267.56 735.34"/>
<path stroke="#D4B577" vector-effect="non-scaling-stroke" d="   M 1430.15 766.19   C 1434.96 766.23 1439.65 765.18 1443.33 761.70   C 1448.30 756.99 1448.87 749.53 1446.42 743.30   C 1442.40 733.12 1430.99 733.94 1422.13 734.28   A 1.35 1.35 0.0 0 0 1420.83 735.63   L 1420.83 736.41   A 1.38 1.37 -1.0 0 0 1422.26 737.78   Q 1426.96 737.61 1431.53 737.90   C 1439.35 738.40 1444.84 743.94 1443.73 751.96   C 1442.51 760.71 1434.52 763.03 1426.26 762.50   C 1424.31 762.37 1423.50 762.87 1423.55 764.78   A 1.87 1.87 0.0 0 0 1424.11 766.09   L 1440.55 782.53   A 2.29 2.28 49.7 0 0 1443.49 782.78   L 1443.74 782.60   A 1.51 1.51 0.0 0 0 1443.94 780.26   L 1429.90 766.78   A 0.35 0.34 -22.7 0 1 1430.15 766.19"/>
<path stroke="#D4B577" vector-effect="non-scaling-stroke" d="   M 1638.46 766.00   Q 1643.24 766.28 1647.74 765.27   C 1655.33 763.58 1659.77 756.26 1658.96 748.63   Q 1658.39 743.25 1655.59 739.95   C 1649.99 733.34 1641.50 734.04 1632.51 734.09   A 0.80 0.80 0.0 0 0 1631.72 734.89   L 1631.72 736.75   A 0.84 0.83 0.0 0 0 1632.56 737.58   C 1641.63 737.56 1650.07 736.78 1654.02 744.60   C 1657.47 751.42 1654.35 759.97 1646.55 761.82   Q 1641.39 763.04 1635.12 762.55   A 0.70 0.70 0.0 0 0 1634.36 763.25   L 1634.36 781.49   A 0.91 0.91 0.0 0 0 1635.27 782.40   L 1636.99 782.40   A 0.99 0.99 0.0 0 0 1637.98 781.41   L 1637.98 766.46   A 0.46 0.45 -88.2 0 1 1638.46 766.00"/>
<path stroke="#D4B577" vector-effect="non-scaling-stroke" d="   M 1133.4204 735.3735   A 0.95 0.95 0.0 0 0 1132.4720 734.4219   L 1130.3720 734.4182   A 0.95 0.95 0.0 0 0 1129.4204 735.3665   L 1129.3396 781.6265   A 0.95 0.95 0.0 0 0 1130.2880 782.5781   L 1132.3880 782.5818   A 0.95 0.95 0.0 0 0 1133.3396 781.6335   L 1133.4204 735.3735"/>
<path stroke="#D4B577" vector-effect="non-scaling-stroke" d="   M 1087.14 747.43   A 0.84 0.84 0.0 0 0 1086.30 746.59   L 1084.00 746.59   A 0.84 0.84 0.0 0 0 1083.16 747.43   L 1083.16 781.69   A 0.84 0.84 0.0 0 0 1084.00 782.53   L 1086.30 782.53   A 0.84 0.84 0.0 0 0 1087.14 781.69   L 1087.14 747.43"/>
<path stroke="#D4B577" vector-effect="non-scaling-stroke" d="   M 783.03 747.35   A 0.74 0.74 0.0 0 0 782.29 746.61   L 779.51 746.61   A 0.74 0.74 0.0 0 0 778.77 747.35   L 778.77 781.71   A 0.74 0.74 0.0 0 0 779.51 782.45   L 782.29 782.45   A 0.74 0.74 0.0 0 0 783.03 781.71   L 783.03 747.35"/>
<path stroke="#D4B577" vector-effect="non-scaling-stroke" d="   M 1265.15 757.38   A 1.34 1.34 0.0 0 0 1263.81 756.04   L 1238.69 756.04   A 1.34 1.34 0.0 0 0 1237.35 757.38   L 1237.35 757.86   A 1.34 1.34 0.0 0 0 1238.69 759.20   L 1263.81 759.20   A 1.34 1.34 0.0 0 0 1265.15 757.86   L 1265.15 757.38"/>
<path stroke="#D4B577" vector-effect="non-scaling-stroke" d="   M 1267.6105 780.4431   A 1.43 1.43 0.0 0 0 1266.1855 779.0081   L 1238.6456 778.9119   A 1.43 1.43 0.0 0 0 1237.2107 780.3369   L 1237.2095 780.6569   A 1.43 1.43 0.0 0 0 1238.6345 782.0919   L 1266.1744 782.1881   A 1.43 1.43 0.0 0 0 1267.6093 780.7631   L 1267.6105 780.4431"/>
<path stroke="#D4B577" vector-effect="non-scaling-stroke" d="   M 366.62 758.25   A 20.90 20.90 0.0 0 0 345.72 737.35   A 20.90 20.90 0.0 0 0 324.82 758.25   A 20.90 20.90 0.0 0 0 345.72 779.15   A 20.90 20.90 0.0 0 0 366.62 758.25"/>
<path stroke="#D4B577" vector-effect="non-scaling-stroke" d="   M 870.73 758.36   A 20.91 20.91 0.0 0 0 849.82 737.45   A 20.91 20.91 0.0 0 0 828.91 758.36   A 20.91 20.91 0.0 0 0 849.82 779.27   A 20.91 20.91 0.0 0 0 870.73 758.36"/>
<path stroke="#D4B577" vector-effect="non-scaling-stroke" d="   M 1015.9648 737.2437   A 21.04 20.75 -83.3 0 0 992.9017 755.7191   A 21.04 20.75 -83.3 0 0 1011.0552 779.0363   A 21.04 20.75 -83.3 0 0 1034.1183 760.5609   A 21.04 20.75 -83.3 0 0 1015.9648 737.2437"/>
<path stroke="#D4B577" vector-effect="non-scaling-stroke" d="   M 1526.08 758.22   A 20.95 20.95 0.0 0 0 1505.13 737.27   A 20.95 20.95 0.0 0 0 1484.18 758.22   A 20.95 20.95 0.0 0 0 1505.13 779.17   A 20.95 20.95 0.0 0 0 1526.08 758.22"/>
</g>

<path xmlns="http://www.w3.org/2000/svg" fill="#D4B577" d="   M 350.82 637.03   A 0.38 0.38 0.0 0 0 351.54 637.02   Q 352.27 634.98 352.78 633.70   Q 391.18 538.05 408.95 493.35   Q 417.37 472.18 432.15 435.15   C 434.25 429.89 438.14 426.12 444.03 427.26   Q 449.76 428.37 452.22 434.29   Q 471.81 481.46 500.57 552.27   A 0.58 0.57 -21.6 0 1 500.24 553.03   Q 495.09 554.94 491.24 556.68   C 484.23 559.84 479.03 560.60 473.59 555.97   Q 471.66 554.33 469.08 548.12   Q 452.61 508.57 442.97 484.50   A 0.18 0.18 0.0 0 0 442.64 484.50   Q 441.25 487.82 439.66 491.78   Q 389.69 616.05 369.88 665.33   C 366.00 674.98 357.88 674.16 348.92 674.13   Q 342.42 674.10 340.23 673.09   C 335.09 670.69 333.28 668.21 330.92 662.30   Q 251.80 464.33 198.47 330.87   A 0.43 0.43 0.0 0 1 198.87 330.28   Q 212.53 330.37 214.15 330.32   C 222.39 330.06 227.98 331.16 231.16 338.57   Q 233.11 343.13 235.60 349.34   Q 328.54 580.40 345.65 623.42   Q 346.08 624.50 350.82 637.03   Z"/>
<path xmlns="http://www.w3.org/2000/svg" fill="#D4B577" d="   M 585.13 496.93   Q 585.21 496.72 585.30 496.51   Q 613.25 426.45 648.48 338.92   Q 652.02 330.14 661.13 330.09   Q 670.64 330.05 681.16 330.23   A 0.47 0.47 0.0 0 1 681.59 330.87   Q 649.12 412.04 611.55 505.28   Q 611.17 506.24 610.77 507.21   Q 610.69 507.41 610.61 507.62   Q 582.65 577.68 547.42 665.21   Q 543.88 673.99 534.77 674.04   Q 525.26 674.08 514.74 673.90   A 0.47 0.47 0.0 0 1 514.31 673.26   Q 546.78 592.09 584.35 498.85   Q 584.74 497.90 585.13 496.93   Z"/>
<path xmlns="http://www.w3.org/2000/svg" fill="#D4B577" d="   M 1458.22 331.66   Q 1458.47 336.11 1458.49 343.59   C 1458.53 354.29 1453.48 358.10 1443.74 359.34   C 1437.66 360.11 1431.80 361.00 1426.34 362.36   Q 1372.04 375.82 1337.26 419.98   Q 1327.64 432.21 1320.96 446.94   Q 1299.25 494.88 1310.27 545.29   C 1321.17 595.23 1358.23 636.46 1406.34 654.20   Q 1432.16 663.72 1461.50 663.26   C 1494.11 662.74 1525.71 651.60 1551.24 632.23   Q 1561.64 624.34 1572.18 612.97   C 1597.21 585.96 1609.60 551.39 1610.71 514.78   A 0.27 0.27 0.0 0 0 1610.44 514.50   Q 1584.75 514.68 1546.28 514.71   C 1542.07 514.71 1535.80 515.03 1532.33 513.66   Q 1524.57 510.59 1523.99 500.96   Q 1523.55 493.67 1523.68 486.69   A 0.48 0.48 0.0 0 1 1524.16 486.22   Q 1545.58 486.10 1624.75 486.09   Q 1634.50 486.09 1638.19 493.70   Q 1639.80 497.02 1639.55 503.52   C 1638.63 527.30 1636.29 550.19 1628.83 571.19   Q 1616.25 606.57 1590.34 634.10   C 1555.71 670.89 1508.00 692.11 1457.72 691.56   Q 1421.87 691.16 1387.16 676.55   Q 1357.14 663.91 1333.58 640.91   Q 1309.99 617.88 1295.89 588.66   C 1275.51 546.45 1273.09 497.98 1288.08 453.60   Q 1303.90 406.76 1341.69 374.95   Q 1358.97 360.42 1377.90 350.68   C 1402.26 338.17 1430.59 330.62 1457.63 331.10   A 0.60 0.59 -1.0 0 1 1458.22 331.66   Z"/>
<path xmlns="http://www.w3.org/2000/svg" fill="#D4B577" d="   M 1048.70 541.41   A 0.25 0.25 0.0 0 0 1048.93 541.06   Q 1043.69 529.41 1035.59 511.04   Q 1031.18 501.03 1022.84 480.76   C 1009.11 447.38 992.38 410.08 979.01 378.51   A 0.22 0.21 43.2 0 0 978.61 378.52   C 976.81 383.87 974.66 388.05 972.42 393.78   Q 969.15 402.10 958.40 428.26   C 949.24 450.52 939.89 474.99 929.85 499.07   Q 928.14 503.19 900.87 570.47   Q 885.34 608.77 874.36 636.19   Q 861.44 668.49 858.71 675.21   C 855.05 684.27 849.12 685.66 839.65 685.32   Q 839.01 685.30 825.83 685.17   A 0.64 0.64 0.0 0 1 825.24 684.30   Q 828.06 677.14 830.96 669.96   C 871.16 570.39 899.56 499.98 917.83 454.28   Q 932.02 418.76 959.68 350.75   C 963.54 341.26 970.02 341.49 979.00 341.40   C 986.60 341.33 992.57 340.99 996.58 348.37   C 999.46 353.67 1001.61 359.87 1004.91 367.40   C 1018.88 399.35 1038.65 445.31 1055.23 485.60   Q 1067.45 515.30 1074.01 529.79   Q 1084.02 551.86 1090.88 568.47   A 0.37 0.36 -10.9 0 1 1090.54 568.97   L 963.23 568.97   A 0.37 0.36 0.8 0 1 962.86 568.60   C 962.97 563.25 961.95 553.71 964.43 548.74   C 967.96 541.68 974.40 541.15 982.34 541.22   Q 1028.16 541.62 1048.70 541.41   Z"/>
<rect xmlns="http://www.w3.org/2000/svg" fill="#D4B577" x="738.80" y="383.03" width="13.10" height="267.08" rx="0.57"/>
<rect xmlns="http://www.w3.org/2000/svg" fill="#D4B577" x="1184.06" y="383.24" width="12.92" height="266.94" rx="0.75"/>
<path xmlns="http://www.w3.org/2000/svg" fill="#D4B577" d="   M 484.89 782.71   Q 469.24 780.93 464.05 766.23   Q 462.84 762.80 462.74 754.75   Q 462.60 744.23 462.73 733.70   A 1.30 1.30 0.0 0 1 464.03 732.41   L 465.52 732.41   A 1.32 1.32 0.0 0 1 466.84 733.71   Q 467.09 749.39 467.04 752.80   Q 466.90 761.87 468.54 766.04   Q 472.71 776.66 485.00 778.62   A 1.02 1.02 0.0 0 1 485.86 779.63   L 485.86 781.84   A 0.88 0.87 -86.8 0 1 484.89 782.71   Z"/>
<path xmlns="http://www.w3.org/2000/svg" fill="#D4B577" d="   M 715.52 782.51   C 706.07 782.56 697.66 774.74 697.23 765.34   Q 696.73 754.26 697.01 733.54   A 0.85 0.84 -0.0 0 1 697.85 732.71   L 700.04 732.70   A 0.84 0.84 0.0 0 1 700.88 733.52   Q 701.18 750.43 701.14 759.46   Q 701.09 767.71 702.64 770.56   C 705.25 775.38 709.85 778.27 715.50 778.24   C 721.15 778.21 725.72 775.28 728.28 770.43   Q 729.80 767.56 729.67 759.31   Q 729.53 750.28 729.65 733.37   A 0.84 0.84 0.0 0 1 730.49 732.54   L 732.67 732.53   A 0.85 0.84 -0.6 0 1 733.52 733.35   Q 734.02 754.06 733.63 765.15   C 733.30 774.55 724.98 782.46 715.52 782.51   Z"/>
<path xmlns="http://www.w3.org/2000/svg" fill="#D4B577" d="   M 1581.36 778.23   C 1587.03 778.22 1591.62 775.29 1594.21 770.45   Q 1595.74 767.57 1595.64 759.30   Q 1595.54 750.25 1595.73 733.29   A 0.84 0.84 0.0 0 1 1596.57 732.46   L 1598.76 732.46   A 0.85 0.84 -0.3 0 1 1599.61 733.29   Q 1600.03 754.06 1599.59 765.17   C 1599.22 774.60 1590.85 782.50 1581.37 782.51   C 1571.88 782.52 1563.49 774.64 1563.09 765.22   Q 1562.63 754.11 1563.00 733.34   A 0.85 0.84 0.2 0 1 1563.85 732.50   L 1566.04 732.50   A 0.84 0.84 0.0 0 1 1566.88 733.33   Q 1567.11 750.29 1567.03 759.34   Q 1566.95 767.61 1568.49 770.48   C 1571.09 775.32 1575.69 778.24 1581.36 778.23   Z"/>
<path xmlns="http://www.w3.org/2000/svg" fill="#D4B577" d="   M 1388.08 759.38   A 0.41 0.40 4.8 0 0 1387.68 758.91   L 1377.82 758.91   A 1.99 1.98 90.0 0 1 1375.84 756.92   L 1375.84 756.46   A 1.68 1.67 90.0 0 1 1377.51 754.78   L 1391.65 754.78   A 0.82 0.82 0.0 0 1 1392.47 755.58   C 1392.69 765.56 1388.00 775.48 1379.17 780.36   C 1367.61 786.76 1352.06 783.28 1345.19 771.57   C 1340.83 764.15 1340.11 754.62 1344.08 746.90   Q 1350.36 734.68 1365.46 732.66   A 1.47 1.46 -3.8 0 1 1367.12 734.11   L 1367.12 735.07   A 1.79 1.78 -1.9 0 1 1365.45 736.85   Q 1355.63 737.47 1349.28 746.26   Q 1346.81 749.70 1346.33 752.90   Q 1344.02 768.38 1356.16 776.12   Q 1360.66 778.99 1367.53 779.14   C 1378.52 779.39 1386.45 769.77 1388.08 759.38   Z"/>
<path xmlns="http://www.w3.org/2000/svg" fill="#D4B577" d="   M 371.01 758.27   A 25.29 25.29 0.0 0 1 345.72 783.56   A 25.29 25.29 0.0 0 1 320.43 758.27   A 25.29 25.29 0.0 0 1 345.72 732.98   A 25.29 25.29 0.0 0 1 371.01 758.27   Z   M 366.62 758.25   A 20.90 20.90 0.0 0 0 345.72 737.35   A 20.90 20.90 0.0 0 0 324.82 758.25   A 20.90 20.90 0.0 0 0 345.72 779.15   A 20.90 20.90 0.0 0 0 366.62 758.25   Z"/>
<path xmlns="http://www.w3.org/2000/svg" fill="#D4B577" d="   M 875.09 758.22   A 25.28 25.28 0.0 0 1 849.81 783.50   A 25.28 25.28 0.0 0 1 824.53 758.22   A 25.28 25.28 0.0 0 1 849.81 732.94   A 25.28 25.28 0.0 0 1 875.09 758.22   Z   M 870.73 758.36   A 20.91 20.91 0.0 0 0 849.82 737.45   A 20.91 20.91 0.0 0 0 828.91 758.36   A 20.91 20.91 0.0 0 0 849.82 779.27   A 20.91 20.91 0.0 0 0 870.73 758.36   Z"/>
<path xmlns="http://www.w3.org/2000/svg" fill="#D4B577" d="   M 1038.93 758.21   A 25.20 25.20 0.0 0 1 1013.73 783.41   A 25.20 25.20 0.0 0 1 988.53 758.21   A 25.20 25.20 0.0 0 1 1013.73 733.01   A 25.20 25.20 0.0 0 1 1038.93 758.21   Z   M 1015.9648 737.2437   A 21.04 20.75 -83.3 0 0 992.9017 755.7191   A 21.04 20.75 -83.3 0 0 1011.0552 779.0363   A 21.04 20.75 -83.3 0 0 1034.1183 760.5609   A 21.04 20.75 -83.3 0 0 1015.9648 737.2437   Z"/>
<path xmlns="http://www.w3.org/2000/svg" fill="#D4B577" d="   M 1530.52 758.16   A 25.29 25.29 0.0 0 1 1505.23 783.45   A 25.29 25.29 0.0 0 1 1479.94 758.16   A 25.29 25.29 0.0 0 1 1505.23 732.87   A 25.29 25.29 0.0 0 1 1530.52 758.16   Z   M 1526.08 758.22   A 20.95 20.95 0.0 0 0 1505.13 737.27   A 20.95 20.95 0.0 0 0 1484.18 758.22   A 20.95 20.95 0.0 0 0 1505.13 779.17   A 20.95 20.95 0.0 0 0 1526.08 758.22   Z"/>
<path xmlns="http://www.w3.org/2000/svg" fill="#D4B577" d="   M 257.50 757.26   Q 251.93 772.66 247.95 781.16   C 246.70 783.83 243.63 783.76 242.56 781.25   Q 232.76 758.26 224.34 735.81   A 1.40 1.40 0.0 0 1 225.60 733.92   L 225.87 733.91   A 2.68 2.67 -12.3 0 1 228.46 735.57   L 244.97 776.25   A 0.31 0.31 0.0 0 0 245.54 776.24   Q 250.72 761.94 256.37 748.88   Q 256.73 748.05 257.53 747.96   A 2.39 2.24 -13.4 0 1 259.96 749.35   Q 261.94 754.33 265.92 763.56   A 2.26 2.25 -26.4 0 1 264.95 766.43   L 264.82 766.48   A 2.61 2.60 -21.1 0 1 261.42 764.98   L 258.53 757.25   A 0.55 0.55 0.0 0 0 257.50 757.26   Z"/>
<rect xmlns="http://www.w3.org/2000/svg" fill="#D4B577" x="-2.22" y="-26.45" transform="translate(279.84,758.41) rotate(22.0)" width="4.44" height="52.90" rx="2.19"/>
<path xmlns="http://www.w3.org/2000/svg" fill="#D4B577" d="   M 553.87 758.38   C 553.81 770.84 545.86 779.68 533.97 782.22   Q 529.79 783.12 519.78 782.59   A 1.16 1.16 0.0 0 1 518.68 781.43   L 518.68 779.83   A 1.18 1.18 0.0 0 1 519.88 778.65   Q 526.89 778.75 529.73 778.61   C 541.20 778.04 549.78 769.74 549.83 758.36   C 549.89 746.98 541.38 738.60 529.92 737.93   Q 527.08 737.77 520.07 737.80   A 1.18 1.18 0.0 0 1 518.88 736.61   L 518.89 735.01   A 1.16 1.16 0.0 0 1 520.00 733.86   Q 530.02 733.42 534.18 734.36   C 546.05 737.01 553.93 745.92 553.87 758.38   Z"/>
<path xmlns="http://www.w3.org/2000/svg" fill="#D4B577" d="   M 942.68 742.31   A 0.10 0.10 0.0 0 0 942.49 742.28   L 926.72 768.35   A 1.83 1.83 0.0 0 1 923.59 768.35   L 904.11 735.97   A 1.43 1.42 -15.5 0 1 905.34 733.81   L 906.01 733.81   A 3.12 3.12 0.0 0 1 908.68 735.32   L 924.74 762.01   A 0.44 0.44 0.0 0 0 925.50 762.01   L 942.11 734.55   A 0.88 0.88 0.0 0 1 942.61 734.18   C 945.02 733.51 945.72 734.47 946.23 736.93   Q 950.25 756.14 955.62 781.56   A 0.92 0.91 -6.1 0 1 954.72 782.66   L 952.42 782.66   A 1.21 1.20 -5.9 0 1 951.24 781.71   L 942.68 742.31   Z"/>
<path xmlns="http://www.w3.org/2000/svg" fill="#D4B577" d="   M 412.80 766.10   A 0.45 0.45 0.0 0 0 412.45 766.87   L 426.03 780.45   A 1.33 1.33 0.0 0 1 425.75 782.54   L 425.50 782.69   A 2.54 2.53 -39.4 0 1 422.45 782.40   Q 413.21 773.87 406.49 766.26   Q 405.88 765.56 405.67 764.63   A 1.68 1.60 84.8 0 1 407.29 762.59   C 413.65 762.92 420.72 762.08 424.19 756.11   C 427.33 750.72 426.16 744.80 421.44 740.76   C 417.81 737.64 409.60 737.85 404.91 738.14   A 1.95 1.94 -1.8 0 1 402.84 736.20   L 402.84 735.75   A 1.52 1.52 0.0 0 1 404.20 734.24   C 411.19 733.53 419.53 733.44 424.94 738.11   C 429.29 741.86 431.08 748.79 429.68 754.22   C 427.65 762.09 421.00 766.65 412.80 766.10   Z"/>
<path xmlns="http://www.w3.org/2000/svg" fill="#D4B577" d="   M 648.65 740.37   L 632.15 781.59   A 1.56 1.55 -79.1 0 1 630.71 782.57   L 628.33 782.57   A 0.87 0.87 0.0 0 1 627.53 781.35   C 632.14 770.75 635.95 760.08 640.34 749.46   Q 644.99 738.19 645.31 737.20   Q 646.25 734.34 647.53 734.11   Q 649.58 733.73 650.96 734.69   A 2.03 2.02 5.4 0 1 651.65 735.52   L 664.39 764.53   A 1.21 1.20 -11.9 0 1 663.28 766.22   L 648.08 766.22   A 1.47 1.47 0.0 0 1 646.61 764.75   L 646.61 763.77   A 1.68 1.68 0.0 0 1 648.29 762.09   L 657.89 762.09   A 0.50 0.50 0.0 0 0 658.35 761.38   L 649.12 740.37   A 0.26 0.25 44.7 0 0 648.65 740.37   Z"/>
<rect xmlns="http://www.w3.org/2000/svg" fill="#D4B577" x="-14.72" y="-1.96" transform="translate(781.09,736.05) rotate(-0.3)" width="29.44" height="3.92" rx="0.92"/>
<rect xmlns="http://www.w3.org/2000/svg" fill="#D4B577" x="-14.77" y="-1.85" transform="translate(1085.38,735.92) rotate(-0.1)" width="29.54" height="3.70" rx="1.18"/>
<path xmlns="http://www.w3.org/2000/svg" fill="#D4B577" d="   M 1186.95 777.09   Q 1187.07 777.09 1187.13 776.95   Q 1193.77 759.94 1203.85 735.19   A 1.57 1.57 0.0 0 1 1205.30 734.22   L 1207.04 734.22   A 0.98 0.98 0.0 0 1 1207.95 735.57   L 1189.55 781.54   A 2.30 2.27 -9.5 0 1 1188.91 782.43   Q 1188.58 782.71 1186.95 782.71   Q 1185.32 782.71 1184.99 782.43   A 2.30 2.27 9.5 0 1 1184.35 781.54   L 1165.91 735.59   A 0.98 0.98 0.0 0 1 1166.82 734.24   L 1168.56 734.23   A 1.57 1.57 0.0 0 1 1170.01 735.20   Q 1180.11 759.95 1186.76 776.95   Q 1186.82 777.09 1186.95 777.09   Z"/>
<rect xmlns="http://www.w3.org/2000/svg" fill="#D4B577" x="1237.28" y="734.05" width="30.28" height="3.58" rx="1.29"/>
<path xmlns="http://www.w3.org/2000/svg" fill="#D4B577" d="   M 1430.15 766.19   A 0.35 0.34 -22.7 0 0 1429.90 766.78   L 1443.94 780.26   A 1.51 1.51 0.0 0 1 1443.74 782.60   L 1443.49 782.78   A 2.29 2.28 49.7 0 1 1440.55 782.53   L 1424.11 766.09   A 1.87 1.87 0.0 0 1 1423.55 764.78   C 1423.50 762.87 1424.31 762.37 1426.26 762.50   C 1434.52 763.03 1442.51 760.71 1443.73 751.96   C 1444.84 743.94 1439.35 738.40 1431.53 737.90   Q 1426.96 737.61 1422.26 737.78   A 1.38 1.37 -1.0 0 1 1420.83 736.41   L 1420.83 735.63   A 1.35 1.35 0.0 0 1 1422.13 734.28   C 1430.99 733.94 1442.40 733.12 1446.42 743.30   C 1448.87 749.53 1448.30 756.99 1443.33 761.70   C 1439.65 765.18 1434.96 766.23 1430.15 766.19   Z"/>
<path xmlns="http://www.w3.org/2000/svg" fill="#D4B577" d="   M 1638.46 766.00   A 0.46 0.45 -88.2 0 0 1637.98 766.46   L 1637.98 781.41   A 0.99 0.99 0.0 0 1 1636.99 782.40   L 1635.27 782.40   A 0.91 0.91 0.0 0 1 1634.36 781.49   L 1634.36 763.25   A 0.70 0.70 0.0 0 1 1635.12 762.55   Q 1641.39 763.04 1646.55 761.82   C 1654.35 759.97 1657.47 751.42 1654.02 744.60   C 1650.07 736.78 1641.63 737.56 1632.56 737.58   A 0.84 0.83 -0.0 0 1 1631.72 736.75   L 1631.72 734.89   A 0.80 0.80 0.0 0 1 1632.51 734.09   C 1641.50 734.04 1649.99 733.34 1655.59 739.95   Q 1658.39 743.25 1658.96 748.63   C 1659.77 756.26 1655.33 763.58 1647.74 765.27   Q 1643.24 766.28 1638.46 766.00   Z"/>
<rect xmlns="http://www.w3.org/2000/svg" fill="#D4B577" x="-2.00" y="-24.08" transform="translate(1131.38,758.50) rotate(0.1)" width="4.00" height="48.16" rx="0.95"/>
<circle xmlns="http://www.w3.org/2000/svg" fill="#D4B577" cx="345.72" cy="758.25" r="20.90"/>
<circle xmlns="http://www.w3.org/2000/svg" fill="#D4B577" cx="849.82" cy="758.36" r="20.91"/>
<ellipse xmlns="http://www.w3.org/2000/svg" fill="#D4B577" cx="0.00" cy="0.00" transform="translate(1013.51,758.14) rotate(-83.3)" rx="21.04" ry="20.75"/>
<circle xmlns="http://www.w3.org/2000/svg" fill="#D4B577" cx="1505.13" cy="758.22" r="20.95"/>
<rect xmlns="http://www.w3.org/2000/svg" fill="#D4B577" x="1083.16" y="746.59" width="3.98" height="35.94" rx="0.84"/>
<rect xmlns="http://www.w3.org/2000/svg" fill="#D4B577" x="778.77" y="746.61" width="4.26" height="35.84" rx="0.74"/>
<rect xmlns="http://www.w3.org/2000/svg" fill="#D4B577" x="1237.35" y="756.04" width="27.80" height="3.16" rx="1.34"/>
<rect xmlns="http://www.w3.org/2000/svg" fill="#D4B577" x="-15.20" y="-1.59" transform="translate(1252.41,780.55) rotate(0.2)" width="30.40" height="3.18" rx="1.43"/>
</g></g></g></svg>