<svg xmlns="http://www.w3.org/2000/svg" viewBox="30.77 241.59 784.08 458.63"><defs><radialGradient id="glow-a" cx="50%" cy="50%" r="50%"><stop offset="0%" stop-color="#c09a53" stop-opacity=".5"/><stop offset="100%" stop-color="#c09a53" stop-opacity="0"/></radialGradient><radialGradient id="glow-p" cx="50%" cy="50%" r="50%"><stop offset="0%" stop-color="#8b9daf" stop-opacity=".3"/><stop offset="100%" stop-color="#8b9daf" stop-opacity="0"/></radialGradient><filter id="blur-g"><feGaussianBlur stdDeviation="2.5"/></filter></defs><style>.c-bg,.c-bg path{fill:rgba(255,255,255,.05);stroke:rgba(255,255,255,.02);stroke-width:.2}.c-active,.c-active path{fill:rgba(192,154,83,.3);stroke:rgba(192,154,83,.45);stroke-width:.5}.c-pipeline,.c-pipeline path{fill:rgba(139,157,175,.18);stroke:rgba(139,157,175,.28);stroke-width:.35}</style><path d="m545.85 435.38 1.37 10.77 3.43.76.32 1.93-2.46 2.05 4.58 3.7 8.88-3.2.7-3.8 5.6-3.48 2.15-8.1 1.6-1.71-1.66-2.9 5.4-3.34-.68-.97-2.5.16-.23 2.3-3.35-.04-.06-3.06-1.08-1.3-1.82 1.66.06 1.51-2.74 1.04-5.06-.32-6.57 6.88-5.88-.54zM450.68 420.44v3.98l1.14 2.15.82-.1 1.41-2.56-.82-1.15-.32-2.84-1.09-1.01-1.14 1.53zM507.47 420.55l4.15 5.41-1.22 1.43-2.94-.51-3.64-3.27.2-2.15 3.45-.91zM430.46 403.46l-.56 1.17.48.83 2.02-.42h1.7l1.86 1.57 3.95-.71 2.9-1.73.75-1.17-.11-1.5-2.61-1.96-3.5.04-.3 1.99-3.68 1.8-2.9.09zM508.93 418.67l-.87 1.49 4.07 5.34 1.42-.46 2.33 2.45 1.01-4.29 2.53.4-.1-1.22-4.16-3.65-.8 2.15-5.43-2.2zM442.7 411.08l-.31.53 5.8 5.98 2.13-3.13-.08-1.23-1.86-2.26-5.67.11zM616.26 457.9l-1.14 2.06 2.94 5.58.09 4.36.53 1.16 3.45.07 1.95-1.88 1.42.86.29 2.65 1.13-.71.07-3.39-.95-.11-.6-2.88-2.4-.09-.6-1.6 1.47-1.96.03-.97h-4.27l-3.41-3.14zM414.02 391.7l-.55 1.39 5.94 3.92.4.05.38-1.1.83-.58-1.33-1.5h-.92l-1.25-1.42-3.5-.76zM404.5 493.5l3.14-.25 5.16 7.3-4.79 3.6-3.47-.89-4.66.06-.75 2.73-3.9.2-1.08-1.47 1.39-4.44 8.95-6.84zM457.1 414.07l.13 4.3 1.45 3.03 5.46.1 2.45-1.75 2.41-.96-.58-2.75.54-1.46-1.23-.65-1.68.14-1.33 1.34-5.55.04-2.08-1.38zM478.5 538.39l3.7-.08-.96 3.23-.94.81h-1.14l-.81-2.19.15-1.77zM411.51 515.29h1.84l.1-5.2 2.31-3.37-.1-5.85-2.1-.05-3.6 2.81 1.5 2.87.05 8.79zM689.04 515.08l-2.5 3.02 2.05.64 1.15-1.6-.7-2.06zM238.63 561.36l7.12-3.1 2.35.22 1.56 6.54 10.84 3.6 1.79 5.52 4.47.57 1.9 4.72-1.34 4.28-7.27.57-2.68 6.87-5.7-.11-1.8-.34-3.29 3.2-1.62-.16-5.6-12.96 1.55-2.31.55-9.17-1.39-5.45-1.44-2.49z" class="c-bg"/><path d="m286.63 618.46 5.4-10.39.2-8.73 10.08-6.5h5.64l4.44-7.51.8-14.42-1.81-3.85 10.68-9.75.4-10.76-14.5-7.11-17.54-5.48-8.26-.81 2.22-4.67-.6-7.1-1.81-.6-2.67 5.3-1.4 1.76-3.6-1.59-12.09 4.26-4.03-5.07.65-5.3-3.8 3.87-4.2-2.26-.43.6.01 1.84 3.62 1.94-5.43 5.73-3.44-.03-3.47-3.54-3.93.12-.49 4.2 2.26 2.74-2.67 8.53-3.1.24-4.96 3.13-1.21 6.15 4.3 4.6.78-.9 3.02-.8 2.58 4.34 7.37-3.17 2.86.17 1.97 6.97 10.52 3.34 1.82 5.57 4.47.53 2.14 5.32-1.44 4.73 1.88 2.47-.28 3.68 5.05-.47 4.63 5.84-.37 4.1 2.74 2.32-6.57 9.95 11.57 6.47zM616.1 453.56l1.35 1.83 4.53.04-.46-2.5-5.41.63zM454.56 594.59l1.86.57-.26 5.31 1.9.26 4.4-3.96 5.27.57 1.4-3.54 6.68-6.1-8.02-9.22-.1-1.51-.88-.26-2.43 2.24-6.31.15-.89 7.87-2.48.57-.14 7.05zM456.42 382.86l1.3 2.14-.52 1.7.08 1.35.48 1.61 2.68-1.52 3.33.09 2.33.96h5.92l1.73-4.14 1.04-1.57v-1.04l-3.72-5.23-3.28-1.3-2.68-.31-2.34.74.09 2.35-3.24 4.1-3.2.07zM191.82 483.23l-.04 3.15h.73l2.47-4.61h-1.68l-1.48 1.46zM438.02 546.6l8.92-.16 1.8 2.57-.07 1.9.67.6h4.43l1.27-2.5h1.8l.74.74 2.48-.07.73 8.72 4.29.13v.68l11.52 5.2.54 1h2.4l-.26-3.64-4.36-2.1.27-2.76 1.88-4.4 4.28-.13-3.68-12.22.07-5.2 5.83-9.11.06-1.28-.87-.48.03-2.47-1.06-.1-1.07-1.36-17.59-.8-3.23 3.14-5.28-3.47-1.85 1.14-1.35 11.35-3.34 2.58-1 2.28.18 3.38-6.02 4.92-1.6-.73.22.94-1.78 1.7z" class="c-bg"/><path d="m443.45 519.23 4.03 4.36 1.59-2.06 2.53.1.55-2 2.49-1.56 5.16 3.56 2.99-2.95 11.57.5-10.74-11.08 1.45-.9.2-1.95-2.44-1.15h-3.58l-5.77 5.72-.2 2.35-4.57-.15-.14 1-2.99-.3-2.68 5.11.55 1.4z" class="c-bg"/><path d="m439.42 526.55-.05 1.26 4.13.1.15 10.73-3.78-.1-2.19-1.7-1.69.94-.08.48.88.42.25 2.2-2.34 2.01.5 1.06 2.59-2h1.24l.4 1.2 1.64.7 5.27-4.47-.1-3.26 1.1-2.65 3.38-2.5.9-8.49-2.4.01-2.78 3.82-7.02.24zM423.79 402.82l-3.77 4.01.07.4 1.55-.48 1.4 1.94 2.35-.83 1.62 1.26.67-.38 2-3.14-.5-.49-1.99-.05-.96-1.96-2.44-.28z" class="c-bg"/><path d="m428.03 519.43 2.78 2.56-.2 3.96 15.27-.36 1.25-1.4-4.38-4.7-.65-1.7 2.79-5.22-1.9-3.46-1.59-.85v-1.76l1.84-1.2.1-5.46-1.45-.17-.03 2.87-6.41 11.97-3.92.2-2.7 1.85-.8 2.87zM234.33 498.25l-1.79-.18-11.77 9.7-1.24 3.42-1.61.18.72 7.55-4.1 10.07 4.45 3.77 5.72.37 3.92 5.75 5.7.19-.18 4.3h2.14l2.31-7.9-2.14-2.7.54-5.02 4.46-.37-.54-11.69-10-3.23-2.31-6.3 5.72-7.9zM202.9 502.75l1.2 2.35.98 1.3-1.31 3.9-2.5-1.77-4.1-3.75v-2.48l5.74.44zM205.9 469.85v1.1l4.6.08 2.17-1.26.34.93 4.51 1.1 4.01 3.62-.92 1.26.17 1.43 3.34.84 3.35-1.51 1.5-1.51-2.17-1.1-11.19-6.57-3.92-.43-5.79 2.02zM484.56 437.8l1.06.76-3.3 3.12-1.57-.05-1.17-.82.16-1.53 2.39-.15 2.43-1.34zM437.2 398.92h3.83l2.05 1.46 3.8-3.15-3.69-2.63-3.65-1.76-2.5.45-3.38 2.17 3.54 3.46z" class="c-bg"/><path d="m422.26 384.23 3.08-.5v-2.17l2.59-.43 1.42 1.43 1.49.16 2.33-1.01 2.09.59 1.83 1.59.25 5.96 1.83 2.43-2.4.34-4.01 2.51.34.84 3.58 3.36-.26 1.67-3.32 1.68-3.09.09-.75 1.59h-1.58l-.75-1.68-2.75-.67-.1-2.77-1.38-.77.11-1.86-.4-1.33-1.99-1.82.42-2.86 2.16-1-.74-5.37zM509 499.77l-.5 2.9 3.42-.05.05-4.27-1.25-.77-1.73 2.2zM256.23 485.37l-.76 1.62.92 1.22 1.14-.99-1.3-1.85zM242.43 481.53l-4.57-2.99-2.89-1.02-.57 5.52.57-.04.76 1.46 1-1.15 2.9-.77 2.51.53.3-1.54zM424.63 435.76l-3.53-1.18-14.68 2.76-3.2 2.43 1.96 10.08-5.84.24-3.5 5.64-8.37 2 .03 4.11 27.53 21.05 4.7.4 15.65-12.23-1.57-1.97-2.94-.4-1.76-2.96V453.5l-1.18-1.18.2-3.16-3.13-3.15-.39-3.36 1.37-.98-.6-3.56-.75-2.35zM496.22 493.86l-.21-5.1 3.42-3.99.93.71 1.68 5.64 8.1 6.02-1.48 1.81-5.92-5.09h-6.52z" class="c-bg"/><path d="m489.98 508.6 6.3-14 6.24.04 5.55 4.81-.4 3.97h4.3l.44 2.38 6.95 4.16 4.29.22-8.15 8.75-11.2 3.45h-2.77l-4.94-4.22-1.96-.82-3.78-5.57-2.5.03-.3-2.56 1.93-.63zM453.07 340.2l1.8.79 1.1 2.07-1.1 1.44-5.56 6.07-.95 3.2 1.27 4.63 4.28 3.2 5.7-2.72 4.6-.64 4.28-6.87-3.17-7.51-3.02-7.2.48-4.63-1.9-.32-.5-3.38-2.55-4.17-2.84 1.96-1.11 4.56-3.01-1.81-4.19-1.02-.93 1.09 1.6 1.45 2.94-.05 2.36 3.81.42 6.05zM435.44 526.65l-.1 2.15-4.88-.1-2.98 5.76 7 7.67 1.74-1.46-.05-1.5-1.19-.55v-1.06l2.69-1.7 2.39 1.8 2.63.06-.05-9.07-4.18-.2-.05-1.9-2.97.1zM495.14 415.6l2.83 3.69 3.53 1.62h2.17l3.72-1.02.94-1.46-11.02-4.12-2.17 1.29zM366.72 497l-.11.96 5.98-.08.3-.9-.13-.89-1.72.7-4.32.22zM369.77 505.3l2.63 4.05 3.42-2.97 3.51-.16 2.93 3.88 2.48 1.64.93-1.82.83-.47-.06-3.99-1.65-4.73-5.07.56-6.26-.5-.04 1.6-3.65 2.91zM183.46 491.11l5.12 3.75 5.17-6.42-.88-1.33-1.76-.06v-3.77l-1.33-.8-4 1.2 1.53 3.52-3.85 3.91z" class="c-bg"/><path d="m368.2 502.36 1.2 2.4 3.4-2.93.04-.9-4-.58-.64 2zM261.4 510.65l6.24 5.66-2.48 2.87-.2 1.7 3.26 3.36-.08 3.23-5.67 2.16-3.4-4.59.73-5.51-1.45-4.1 3.05-4.78zM194.4 488.74l8-.3 2.36 2.82-1.47-.34-2.85.12-3.72 3.5-1.59 3.53-1.04-.56-.01-3.87-2.3-1.54 2.63-3.36zM443.42 407.82l-3.05 2.51h-3.1l-.37 2.18 1.42.37.7-1.05 1.12.97.9 3.11 6.1 2.86.6-.7-6.2-6.39.64-1.17 5.89-.22.6-1.88-3.85.11-1.4-.7zM231.85 477.16l2.97.31-.36 3.65-.29 1.92-3.47-.2-.6.93-1.07-.07-.38-2 3.65-.3-.22-2.08-1.68-.69 1.44-1.47zM444.39 403.01l-1 1.57.07 2.4 1.6.83 4.92.14 6.85-5.77.04-1.28-.75-.37-4.95 2.25-6.78.23zM394.92 383.09l-.8 5.18-6.97 2.56h-2.22l-1.58-1.11v-.96l3.5-2.24-.96-1.92.16-2.72 3.01.16 1.39-3.25-.19 2.89 2.35 1.85 2.3-.44zM486.38 444.9l-1.37 4.35 1.77 5.21 2.04-7.62v-1.63l-2.44-.31zM595 509.69l3.96-1.94 2.35-8.5-.1-10.45 13.46-14.54v-3.44l2.78-1.08-.1-3.99-3-5.81 1.71-3.13 3.75 3.45 4.8.22v1.94l-1.49 1.61.32.87 2.56.1.54 2.9h.75l1.93-3.44.96-9.05 3.2-2.26.11-3.12-1.28-2.48-2.03-.1-7.95 5.25.5 3.38-5.59-.02-1.97-2.41-1.07.14.37 3.35-12.08-.86-7.48-3.34-.4-4.1-4.99-3.1-.06-6.37-3.42-3.91-7.87.75.86 3.42 3.85 3.12-6.67 13.64-4.46.34-.73 1.64 4.4 4.07-.22 4.1-4.49-.07-.48 2.04 3.72-.16.1 1.61-2.66 1.4 1.7 3.24 3.32 1.08 2.03-1.5.96-2.7 1.18-.53 1.39 1.4-.43 3.45-.96 1.61.22 2.8L595 509.7zM502.8 433.64l-1.36 6.66-5.58 4.65.35 2.2 5.46.37 8.69 7.07 4.85-.14.13-1.64 1.78-1.9 2.5 1.4.32-.3-4.81-6.41-2.28-.14-3.04-3.9.6-2.87.93-.12.32-1.27-4.13-4.35-4.74.69z" class="c-bg"/><path d="m507.4 427.52-1.05 1.1.1 1.73 1.32 1.84 4.66 5.1-.71 2.04h-.81l-.4 2.05 2.63 3.37 2.43.2 4.86 6.74 2.73.2 2.13 1.53.1 3.06 8.42 4.9h3.13l1.93-1.63 2.43-.1 1.42 3.26 9.08 1.27.27-3.34 3.01-1.09.14-1.2-2.4-3.26-5.33-4.29 2.8-2.55-.2-1.12-3.5-.55-1.5-11.84-.17-2.72-9.51-3.64-4.22.95-2.36 2.9-2.1-.14-.6.5-4.66-.3-5.88-4.28-2.18-2.4-1 .24-1.81 2.07-3.2-.6zM366.26 340.52l-1.7-.96-2.27 1.45-1.97 1.8.06 1.02 2.54.32-.16 1.82-.9.9.22.6 2.54.16v2.93l3.66.65 2.17 1.22 2.43.1 4.19-2.07 3.23-4.28.05-2.88-1.96-1.66-1.64-1.4-.75.54-1.11 1.44-1.27-.16-1.27-1.4-1.64.16-2.39 1.98-1.44 1.55-.8-.7-.05-1.7.8-.54-.57-.89zM221.53 480.8l-3 .76v.84l1.75 1.01h1.84l1.17-1.35-1.76-1.26zM489.47 447.25l-2.12 7.42-.1 1.13h3.35l3.74-3.3.1-1.26-1.53-1.56 2.73-2.27-.4-2.11-.74.17-2.29 1.64-2.74.14zM491.14 521.37l2.3 4.48-2.76 5.78-.36 1.76 13.77 8.51 4.27-6.7-2.16-1.76-.04-8.84 2.7-2.95-4.3 1.43-3.27.05-5.1-4.3-1.6-.7-2.99.28-.52.88.06 2.08zM565.46 411.32l-.27 2.18.22 1.35 7.52 2.53-6.6 2.66-.75-.62-1.43.91.07.5.76.35 4.63.12 2.35-.7 3.02-3.81 3.78.65 4.56-6.3-12.2-1.67-1.68 4.1-2.13-2.29-1.85.04zM655.08 497.98l3.53 3.78 6.58-4.88.58-7.69-3.4 2.34-1.76-.98-2.4-.32-1.34-.94-.65.03-1.75 2.88.28 1.33 1.78 1-.21 2.7-1.24.75zM514.36 560.01l.4 1.32 1.7.27.66-1.72-2.76.13zM687.75 407.05l1.6.66.47 5.57 3.16.18 2.97-3.48-1.02-.92.12-3.73 2.73-3.3-1.4-2.51.91-1.04.5-2.6-1.58-.71-1.35.68-1.67 5.07-2.7-.23-3.11 3.68.37 2.68zM696.45 410.44l5.34 4.36.9 4.22-.18 2.26-2.6 2.94-2.25.12-2.56-5.5-.96-2.63 1.02-.8-.24-1.1-1.27-.57 2.8-3.3zM519.2 452.77l-1.94-1.05-1.35 1.35.14 2.72 3.14 1.2.01-4.22z" class="c-bg"/><path d="m513.5 402.16 3.54-1.51 3.96-.14.27 6.05h-2.31l-1.78 2.89 2.32 3.85 3.42 1.92.3 2.21 1.26-.42 1.16-1.37 1.9.41.97 1.93h2.45v-2.47l-1.5-4.4-.68-3.57 4.36-1.93 5.87.96 3.68 3.71 8.33-.82 4.64 6.6 5.46.27 1.5-2.47 1.9-.42.28-2.75 2.87-.14 1.5 1.8 1.5-3.58 12.96 1.8 2.18-2.9-3.68-4.53 4.9-10.72 3.96.27 2.73-6.59-5.45-.55-3.14-3.03-8.64 1-11.14-10.76-3.92 3.48-11.9-5.4-14.6 7.15-.41 5.08 3.41 3.99-6.65 3.76-8.64-.2-1.8-2.64-6.77-.38-6.42 4.13-.14 5.63 5.99 4.8zM650.75 466.4l-2.1 1.06-1.73 5.06 2.9 3.7-.48 4.1.48.19 4.83-2.34 6.48 7.24-.15 4.56 1.4.76 3.49-2.82-.29-2.24-10.05-9.55.1-1.46 1.25-.88-.87-2.43-4.16-.69-1.1-4.26zM487.14 440.04l.05 1.69-.7 2.56 2.43.2.16-3.63-1.94-.82zM258.75 493.28l-.62 1.3 1 1.08 1.3-.7-1.68-1.68zM603.26 505.4l.22 2.35.22 1.71-1.27.22.64 3.85 1.9 1.07 2.97-1.72-.85-4.05.22-1.5-2.76-2.55-1.29.62zM378.2 515.03l9.49 6.34-.23-4.8-2.87-3.38-2.8-2.48-3.6 4.32zM470.9 606.83l2.63-2.03 1.25.05 1.5 1.87-.15 1.88-2.54.94v.72l-2.79-.15-.67-2.03.77-1.25zM452.14 375.24l-2.15.36.18 2.02 3.35.25 1.27 1.05.33 1.8 1.04 1.45 3.07-.13 2.94-3.74-.18-2.23-5.53-.86zM420.42 397.58l.76.68.88.08.2-1.73-.26-.97-1.22.58z" class="c-bg"/><path d="m462.82 369.96-6.36-1.03-1.09 2.82-1.83.55-.96-1.18-.96-1.8-1.04.76-.59 3.13v1.7l2.25-.37 4.66.08 5.62 1.05 2.25-.66-.13-2.52-1.82-2.53zM429.96 453.52l1.35-.23.4-3.1h.67l2.76-4.54 6.8 1.98 1.86 2.89 6.69 3.06 3.48-1.47-.34-1.47-1.52-1.47.17-1.02 2.48-2.1h4.89l1.86 2.5 3.93.57.51 31.88-2.92-.1-17.65-9.19-1.91 1.08-7.26-1.81-1.97-2.6-2.87-.4-1.45-2.6.04-11.86zM465.14 401.38l2.68 4.12-.23 2.33.96.05 2.28-3.85-2.73-3.39-1.55-.64-1.41 1.38zM449.68 416.68l-1.27 1.79.37 1.1 1.5.27 1.18-1.6zM526.99 561.47l-1.84 4.38-3.16 5.56-5.52.4-2.37 2.78.4 8.5-3.43 3.97.4 6.76 2.9 3.31 3.42-.4 3.42-2.52-.78-3.98 7.89-13.65-1.58-1.72 1.58-3.32 1.71.53.53-1.32-1.58-6.76-.93-2.79-1.06.27zM456.64 418.92l-2.9.96.13 2.48.68.87 3.46-1.6-1.37-2.7zM377.58 494.85l2.67-1.83 14.8-.08-3.43-23.81 3.9-.11 18.91 14.43 2.54.36-.96 8.02-11.88 1.08-9.17 6.85-1.67 4.68-6.37.27-1.63-4.68-4.88.35.19-1.53-3.02-4zM645.53 501.6l-2.4-3.84 1.74-2.44-1.64-3.02-1.55-.3-.29-5.06-2.32-4.48-.67 1.07-1.55 2.63-1.94.3-.96-1.28-.49-3.41-1.45-2.73-5.91-5.58 1.45-.96.27-4.04 2.16-3.63.93-9.03 3.13-2.13.1-3.3 1.88.62 2.96 4.28-2.2 4.7 1.48 3.7 3.66 1.43.67 4.02 4.9.76-1.35 2.35-6.19 2.43-.67 4 4.54 5.84.2 3.12-1.07 1.07.1.98 3.38 4.97.1 5.16-1 1.8zM597.44 386.22l5.03-6.68 6.04 2.8 4.1 1.1 5.04-4.62-3.42-2.52 2.25-3.17 6.7 2.37 2.33 3.8 4.2.12 2.2-1.63 4.52-.19.98 1.68 7.52.38 4.75-4.85 6.58.7-.38 6.6 2.88.65 3.53-1.6 3.74 1.85-.08.93-2.72.08-2.83 5.93-2.19.22-8.54 11.16-8.72 3.84-5.46.43-4.53-2.93-5.79 3.1-5.7-1.77-1.62-4.14-10.8-.76-5.54-9.38-2.69-.18-1.38-3.33z" class="c-bg"/><path d="m365 478.27 1.88 2.46-.39 10.65 2.74-1.97 1.96-.4 2.74.99 3.12 4.34 2.94-1.98 14.3-.2-3.53-23.86 3.78-.02-7.05-5.4v3.5l-8.92.02-.05 6.7-2.56-.01-.33 4.94-10.63.24zM440.82 438.34l-1.45.3.05 1.6 1.3.43.58-.49-.49-1.84zM544.89 584l-1.31 1.73.26 1.86 2.76-2.26-1.71-1.32zM487.97 567.07l2.69 2.81-.06 3.6.52 1.51 3.57-3.85-.41-4.9-1.91-1.46-1.7-8.6-2.95-.1 1.34 6.19-1.1 4.8zM133.85 433.98l4.17 13.15-1.94 1.09.21 2.6 3.68 2.83v5.23l4.54 4.36-1.95-12.85-2.6-8.5.66-5.87 2.16.22.86 1.96-.86 5 11.23 22v7.83l9.08 10.67 9.94 4.57 4.1-2.4 5.84 4.8 3.46-3.49-1.51-3.92 4.97-1.52 1.5.87 1.52-1.52h2.38l4.32-7.63-2.16-1.96-8.43 1.96-1.94 5.67-4.97.87-5.84-2.4-2.6-8.27 1.97-10.43-4.01-2.5-1.91-10.02-1.6-.68-2.92 2.96-3.35-1.79-1.32-6.68-13.28-1.4-6.87-5.15-6.53.34z" class="c-bg"/><path d="m482.8 596.36 2.32 1.93 5.48-3.34.88-4.95v-8.18l8.79-7.19 1.5.05 5.33-5.1-.83-10.53-13.81 1.74.52 3.34 2.02 1.76.57 5.73-4.76 4.64-1.14-2.6.2-3.44-2.73-2.98-6.73 3.13 6.26 3.18.2 9.28-4.13 6.14.05 7.39zM444.22 603.86l2.9.21 1.7 1.72 4.04.05.98-11.46v-7.5l2.59-.52.98-7.87 6.57-.2 2.32-1.93-3.93-.16-5.32.73-5.74-2.08h-16.13l.41 4.58 5.38 7.91-.94 4.07.06 2.13 4.13 10.32zM798.7 602.58l-.3 1.54 3.99 5.56 2.14.93.3-2.16-6.12-5.87zM413.4 500.17l2.2-.05 1.99-2.98 3.33-.6 3.56 2.17 7.58.22 5.86-2.4 2.2-1.88.17-2.5 4.08-4.12 1.08-9.1-2.68-5.64-6.88-1.67-15.93 12.4-2.25-.2-.97 8.6-8.13.82 4.79 6.93zM203.22 491.62l1.89.38.06 3.88-2.2 6.3-5.94-.6-1.32-3.03 1.76-3.68 3.34-3.11 2.4-.14zM421.35 384.57l-3.92 1.93.83.75.1 1.93-.84-.16-.91-1.43-2.2 3.47 3.37.7 1.25 1.32.67.02.44-3 2.12-.89-.91-4.64zM595.18 448.79l.4 3.69 6.98 3.16 11.2.83-.43-2.7-7.48-2.06-6.34-3.78-4.33.86zM532.24 481.88l6.4-3.68 1.13-5.4-1.4-.81.58-5.8 1.21-.7 1.31 2.05 7.77 4.06v2.26l-9.41 13.85-4.33.15-3.26-5.98zM205.68 506.75l-1.26 3.94 4.17 1.08 2.58.51.44-3.05 2.78-1.4 2.46 1.27.97 1.55 1.17-.14.93-2.81-3.08-1.27-2.34-1.27-2.33 1.59-2.77 1.4-2.84-1.15-.88-.25zM209.52 541.25l-1.68 1.7.11 2.7 14.65 26.69 15.2 9.8 2.35-3.94.57-8.67-1.23-5.4-4.14-6.99-2.47.79-1.11 1.24-4.92-5.64 1.23-6.65 5.7-3.71-.45-3.5-5.8-.22-3.02-5.07-1.68-.56.11 3.05-7.48 8.9-5.6-1.36-.34-3.16zM553.64 455.08l2.25 3.34-.22 1.72-3 1.19-.2 2.8h3.42l1.17-.97h6.52l5.88 5.17.75-2.48h4.38l.1-3.12-4.48-4.3.96-2.38 4.6-.32 6.2-12.92-3.43-2.69-1.27-4.52 8.33-.75-4.92-7-2.62-.71-1.07 1.3-.8.06-4.92 3.12 1.6 2.7-1.81 1.93-2.25 8.3-5.56 3.54-.75 3.89-8.86 3.1zM457.1 390.18l.74 1.35.18 1.44-.6 1.39-1.4 2.66-1.16.53-1.51-.66-.91.05-2.2.83-2.51-.75-4.06-2.88-3.98-2.13-1.6-2.44-.3-5.75 3.1-2.7 4.07-1.35 1.33-.14.31 1 1.73.7 4.77.09 1.47-.05 2.42 3.71-.6 1.52.25 1.8.47 1.78zM249.3 482.07l-2.29-.77-1.83 1.15.92 1.07 3.12.46.08-1.91zM267.2 584.46l1.9 2.07-.22 4.4 5.48-.34 4.14 5.3-.34 4.72-2.68 4.06-5.48.22-.22-2.25 1.56-3.72-5.37-3.38h-4.47l-3.35-3.6 2.44-6.97 6.6-.51zM527.27 463.02l-.45 3.46 1.34 1.02 1.2-.12.45-4.36-1.04-.75-1.5.75zM457.73 401.28l-.23 1.28-5 4.17 4.18 6.13 2.69 1.88h4.82l1.59-1.33 2.14-.28 1.59.96 2.81-3.2-.54-1.61-2.86-.74-1.96-.1.1-2.74-2.6-4.08-6.73-.34zM452 407.28l-1.77 1.33h-.86l-.6 1.83 2.1 2.43.14 1.93-.88 1.25 3.06 3.2 3.32-1.02-.27-4.72-4.24-6.23zM479.9 532.93l2.43 2.24-.1 2.4-3.78.07V535l1.45-2.07zM466.14 505.04l-2.55-1.5-2.32-4.6.13-4.27 3.22-2.77.16-10.23 2.12.06-.24-5.68 22.3.2 3.2-3.21 6.87 11-3.77 4.44v6.79l-4.6 9.89-1.03 2.3-3.71-5.32-2.71 3.44-3.06.84-9.94-1-4.33 1.54zM658.31 527.7l.69.4 1.55-.13-.13-1.17-1.26.2zM442.7 405.08l-2.19 1.31-4.1.9.83 2.37 2.87.03 2.64-2.21-.04-2.4z" class="c-bg"/><path d="m443.6 400.88.6.52.08.9 6.6-.15 4.87-2.1-.07-2.13-.94.41-1.34-.72-.82-.03-2.16.86-2.94-.7-3.87 3.13zM372.8 509.79l4.89 4.72 3.48-4.23-2.18-3.41-3 .3-3.19 2.62zM526.7 501.94l3.78-1.45 1.34.8-.15 3.36-3.48 9.92-18.85 20.19-2.19-1.5-.15-8.52 2.84-3.26 6.02-1.86 8.82-9.32 2.31-2.06.65-3-.94-3.3zM268.38 516.72l1.77 1.61 2.73-1.7 2.49.09-.32.96-1.05 2.18-.16 5.42-4.97 2.03.24-3.48-3.2-3 .16-1.53 2.31-2.58zM489.34 508.02l-2.04.9.64 3.55h2.54l3.45 5-2.76.36-.71 1.29-.07 1.85-8.3-.14-.85-1.3-5.8-.32-10.65-10.96 1.07-.64 4.51-1.36 9.9.75 3.37-.75 2.23-3zM189.3 495.22l4.07 2.02-.06-3.2-2.08-1.28-1.92 2.46zM487.55 437.18l-.3 2.2 2.43 1.02-.1 6.08 2.43-.05 2.44-1.84.92-.16 5.53-4.4 1.11-6.38-11.05 1.12-1.17 2.56-2.25-.15zM482.53 596.98l-2.17.36-.93 2.56 1.66 1.5h2.01l1.7-2.44-2.27-1.98zM440.97 494.98l.11-2.55 4.1-3.98 1.1-9.79-2.73-5.22 1.91-.98 18.5 9.64-.11 9.46-3.26 2.77v4.88l2.13 4.13h-3.77l-6.24 6.17-.16 1.87-4.6-.06-.07.85-2.63-.35-1.8-3.4-1.35-.66.18-1.04 1.7-1.3v-6.06l-2.35-.37-2.83-2.1 2.17-1.9zM408.5 516.81l2.31-1.36-.05-8.94-1.5-2.44-.97.81.2 11.93zM646.04 472.92l2.8 3.6v4.38l.97.49 4.45-2.15.88.3 5.31 6.13-.19 4.2-1.74-.3-1.54-.98-1.16.1-2.03 3.4.39 1.85 1.64.88-.1 2.05-1.15.58-3.97-2.73v-2.44l-1.64-.09-.68 1.07-.35 10.9 2.57 4.7 4.55 4.38-.19 1.27-2.42-.1-2.22-3.3h-2.33l-2.9-2.35-.87-2.44 1.25-2.05.43-1.85 1.37-2.42-.06-5.56-3.34-4.83-.14-.59 1.08-1.08-.25-3.83-4.44-5.63.52-3.24 5.5-2.32zM559.74 422.23l3.55-4.4h1.34l.47.98-1.64 1.2v.98l1.08.77 5.2.32 1.69-.73.77.15.52 1.66 3.08.31 1.55 3.27-.47.99-.61.05-.61-1.24-1.34-.1-2.32.3-.16 2.18-2.31-.15.1-2.75-1.7-1.66-2.57 2.13.06 1.4-2.27.77h-1.34l.1-4.82-2.17-1.6zM528.33 418.56l-.54 2.27h-3.58v3.08l3.85 2.54-1.2 3.48v1.61l1.6.27 2.13-2.8 4.8-1.08 10.23 3.88.13 2.81 5.71.54 6.38-6.7-.8-2.15-4.25-.93-11.96-7.77-.54-2.81h-4.52l-2 3.75h-2l-3.44.01zM425.52 435.62l4.78-1.92 1.57 1.02.06 1.24-.74.96.12 1.7.73.4v3.06l-.85 1.42.12.9 3.2 1.14-2.58 4.02-1.01-.06-.18 3.23-1.12.17-.96-.85.22-3.28-3.14-3.06-.4-2.66 1.52-1.2-1.34-6.23z" class="c-bg"/><path d="m472.81 421.9-2.3-1.42-1.27-1.01-2.14.91-1.48 3.74 2.22-.5 1.56-1.18 3.44.93-1.95 1.88-5.17-.25-1.91 2.1v1.01l1.22 1.03v1.12l-.51 1.33.5 1.12 1.63-.8 1.63 1.73-.4 1.23-.61.82.9 1.02 4.47.91 3.14-1.33v-1.93l1.52.3 3.65 2.14 3.94-.61 1.72-1.63 1.12.4v1.84h1.52l1.31-2.55 11.55-1.23 5.04-.61-1.33-1.75-.02-2.35 1-1.21-3.68-2.96.2-2.55h-2.02l-3.35-1.64-1.93 2.04-7.1-.21-4.24-2.55-4.09.36-4.54 2.73zM258.97 502.57l-.92.85-1 .15v1.23l1.84 1.69.76-1.23.46-1.38-.16-1.15-.98-.16zM695.69 453.76l-3.06 2.33-.17 4.5 2.65 3.08.66-.58-.08-9.33zM492.22 560.02l13.8-1.7-3.4-6.56-.18-6.3 1.1-3-14.37-9.03-4.5.75-1.56 1.16-.14 2.63-1.02 3.66-1.05 1.25-1.51.14 2.8 9.42 4.82 2.84 4.2.1zM460.66 388.8l-2.5 1.4.62 2.66-2.32 4.89.02 2.15 1.09.69 6.98.35 1.96-1.62 2.09.7 3 4-2.2 3.94 2.61.76 3.42-3.93 1.95.36 1.82 1.26-1.6 2.1 2.16 3.38h2.3l1.18-2.25 2.44-.5.07-1.82-4.53-.7.14-1.96h4.39l4.74-3.8 2.09-1.82.34-5.76-9.33-.83-3.83-5.4-2.65-.91-3.2.13-1.45 3.57-6.57.1-2.13-1-3.1-.15z" class="c-bg"/><path d="m480.31 532.23 2.62 2.45 1.64-1.04 4.44-.73.77.08.28-1.69 2.5-5.27-2.1-4.4-6.84.05-.04 1.81.92.88-.14 1.8-4.05 6.06zM274.63 612.48l-1.77 1.9.73 10.18 5.57 1.61 7.08-7.1-11.6-6.59zM558.64 428.48l2.67.13v-4.55l-2.53-1.47 4.26-5.36h1.73l1.72 2.02 4.53-1.74-6.25-2.15-.25-1.3-1.48.37-1.46 2.54-6.3-.2-4.63-6.55-8.12.8-3.88-3.83-5.35-.91-3.9 1.58 2.26 7.5.03 2.53 1.64.03 2.01-3.84 5.36.07.8 2.95 11.48 7.62 4.45 1.02 1.21 2.74zM231.5 503.56l.38 2.24 2.8.89.65-4.13 2.96-3.06 2.97 3.47 6.82 1.86 5.77-1.21 3.94 4.85 2.96 1.86-3.25 4.95 1.09 3.75-1.86 2.3-1.93 1.62-4.17-2.1-.96.96v3l3.05 1.45-2.25 2.43-2.24 2.43-2.97-.25-2.98-3.27-.63-12.33-10.19-3.47-1.85-5.42 1.89-2.82zM659.04 502.29l1.02 1.61.2 1.85 2.7.3 3.28-4.39 3.1-.87 1.64-4.48-.77-7.2-3.19-4.39-3.36-2.69-4.28-7.35 3.07-5.13-4.4-5.04-3.51-.15-3.16 1.7.94 4.07 4.22.74 1.13 3.14-1.49.97.1.78 9.9 9.68.38 2.84-.6 9-6.93 5zM476.73 588.02l-6.83 6.31-1.62 3.9-5.41-.67-4.5 4-3-.3.24-5.53-1.06-.37-.74 11.31-5.31-.05-1.6-1.88-2.34-.03 2.13 6.13 3.81 3.6-2.72 3.18 1.77 3.97 4.08 1.56 3.25-2.76 9.3.05.67-.83 4.14-.73 13.97-13.92-.05-4.38-1.5 1.94h-2.23l-2.73-2.28 1.39-3.44 2.38-.49-.22-7.07-5.27-1.22zm-3.28 16 1.31-.06 2.12 2.3-.06 2.66-2.48 1.25-.16.89-3.78.04-1.19-2.85 1.08-2.1 3.16-2.14zM459.78 571.66l2.74 3.8 4.24.26 1.5.83 4.45.05 3.83-5.37 10.7-4.79.93-4.21-1.24-6.05-5.58-3.18-3.73.26-1.86 4.12.06 1.87 4.39 2.14.26 4.64-3.78.2-.93-1.56-10.5-4.48-.3 3.44-4.97.16-.21 7.87z" class="c-bg"/><path d="m468.52 578.23 7.76 8.75 5.94 1.52 3.98-6.25-.3-8.28-6.47-3.34-2.43 1.1-3.62 5.52-5.02-.05.16 1.03z" class="c-bg"/><g class="c-bg"><path d="m437.37 547.46 2.94 11-.07 3.48-4.3 4.63-.66 7.53 16.6.15 5.4 1.95 4.45-.58-2.6-3.25.01-9.28 5.1-.22v-3.62l-4.14-.17-.83-8.57-1.74.02-.95-.85-1.02.06-1.37 2.64h-5.25l-1.22-1.23.36-1.73-1.44-2.1-9.27.14z" class="mainland"/><path d="m435.58 544.45 1.5 1.96 1.95-1.85-.57-1.9-.49-.04-2.4 1.83z"/></g><g class="c-bg"><path d="m279.05 600.61 1.68 1.57-6.37 9.47-2.24 2.48.77 10.81 4.92 5.98-4.13 7.2-3.13 1.36h-3.58l1 5.62-5.59 1.92 1.34 4.73-3.35 10.7 4.14 3.38-2.24 5.52-3.8 5.97 2.01 4.17-4.92.78-4.03-4.95-.67-15.43-6.26-26.2 1.9-9.17-4.03-11.71 2.68-15.2 2.46-2.94-.6-2.22 3.16-2.89 7.05.48 3.95 4.21 4.55.08 4.67 2.85-1.38 3.22.33 3.25 6.61-.31 3.1-4.73z" class="mainland"/><path d="m264.75 687.56.22 4.96 3.8-.34 3.25-2.15-5.48-1.12-1.8-1.35z"/></g><g class="c-bg"><path d="m672.96 609.07-.3 21.93-3.37 2.48-.3 2.16 4.6 3.08 11.34-2.16h5.83l2.14-3.1 12.88-2.46 9.2 2.78-.61 3.7 1.22 3.72 7.06-1.24.3 1.85-4.6 3.4 1.53 1.23 3.37-1.23-.91 10.2 6.44 4.94 3.68-1.24 1.84 1.86 10.73-1.55 10.13-16.38 3.68-.93 7.36-13.6 1.84-11.73-4.6-5.87 1.84-1.24-3.68-11.43-3.99-2.79.62-15.44-3.69-2.79-.91-8.65h-1.85l-6.13 20.4-3.37.3-7.67-7.72 4.3-11.44-7.98-1.55-8.9 2.48-2.45 7.1-3.98.92-.3-4.94-16.26 9.89.3 3.7-2.45 3.4h-6.13l-13.2 5.56-4.6 12.4z" class="mainland"/><path d="m728.78 668.09-1.54 6.18.3 4.32 4.6-.31 5.22-8.03-8.59-2.16z"/></g><g class="c-bg"><path d="m222.12 463.11-1.09-.33-.08 2.1 1.34 1.35.91-1.35-1.08-1.77zM224.29 466.4l-1.5.84 1.41 2.02.76-1.01-.67-1.85zM229.14 467.91l-1.6-.09.17 1.02 1.17 1.68 1-1.1-.74-1.51zM228.39 465.9l-2.6-1.1-.5-2.61 1-.43 1 2.03 1.01.76.09 1.35zM225.88 460.59l-1.34-.34-.25-1.68-1.42-.5.92-.93 1.67.59 1.25.76-.83 2.1z"/></g><g class="c-bg"><path d="m261.4 683.51-3.7 8.1 6.37.68.11-5.4-2.79-3.38zM260.14 682.24l-2.78 3.07-.33 3.6-5.37-3.04-5.7-8.22-1.68-2.93 2.35-3.05-.23-3.83-2.68-1.12-2.12-1.57.44-2.15 2.8-.79.56-12.38-4.36-2.48-2.84-64.48.73-1.28 5.57 12.84 1.78.03.58 2.05-2.37 2.87-2.72 15.45 3.87 11.9-1.79 9 6.31 26.49.67 15.49 4.52 5.22 4.79-.7z"/><path d="m241.72 649.83-1.12 1.69.56 2.93 1.12.11.56-3.71-1.12-1.02z"/></g><g class="c-bg"><path d="m594.5 386.13-3 7.52-4.12-.22-4.34 9.52 3.69 4.7-7.61 10.5-3.9-.65-2.62 3.28.65 1.97 3.04.22 1.52 3.5 3.05.66 9.34 12.04v6.13l4.56 2.84 5-.87 6.3 3.72 7.6 2.18 3.7-.43 4.13-.45 8.69-5.68 2.83.44 1.08 2.56 2.4.72 3.25 4.81-2.17 4.82 1.3 3.28 3.7 1.32.65 3.94 4.35.44.64-1.97 6.3-3.29 3.91.22 4.57 5.03 3.04-1.31 1.95.21.88 2.41 1.52.22 2.17-3.06 8.68-3.29 7.83-9.4 2.6-8.98-.21-5.91-3.26-.66 1.95-2.19-.43-3.5-8.26-8.31V421l2.39-3.06 2.39-1.1.21-2.41h-6.08l-1.09 3.28-2.83-.65-3.47-3.72 2.17-5.69 3.04-3.28 2.83.21-.44 5.03 1.52 1.32 3.7-3.72 1.3-.22-.43-2.84 3.47-4.16 2.61.22 1.53-4.82 1.78-.94.18-3-1.73-1.81-.15-4.74 3.33-.22-.22-12.21-2.33 1.4-.86 3.13h-3.9l-11.3-6.36-8.16-9.84-8.28-.09-2.1 1.84 2.67 6.13-.93 5.76-3.34 1.39-1.87-.15-.14 5.7 1.95.44 3.48-1.53 4.56 2.18v2.19l-3.26.22-2.6 5.68-2.4.22-8.47 11.16-8.9 3.94-6.08.44-4.13-2.84-5.87 3.06-6.3-1.97-1.52-4.15-10.64-.66-5.65-9.19h-2.39l-1.92-4.26z" class="mainland"/><path d="m671.8 472.66-2.06.57-1.49 1.84 1.24 2.4 1.81.17 2.07-1.83.49-2.41-2.06-.75z"/></g><g class="c-bg"><path d="m350.01 490.26-1.64.95 1.17.94 1.41-.71-.94-1.18zM354.05 492.17l-1.08.95.77 1.4 1.83-.82-1.52-1.53zM351.7 494.84l-1.37.82 1.48 1.98 1.17-.62-1.28-2.18z"/></g><g class="c-bg"><path d="m427.12 370.08-3.58 3.96-.13 2.59 1.63 4.26 2.56-.48-.32-3.49 1.77-1.97-.04-1.54-1.24-3.23-.65-.1z"/><path d="m428.98 377.35-1.06.23v1.59l1.12.87 1-.25-.24-1.5zM432.3 375.85l-.94.23-1.06.97.45 1.95 1.3.5-1.34.54-.26.69h2l.6-1.1-.76-.38.25-.96.92-1.2-.25-1.05z"/></g><g class="c-bg"><path d="m213.99 529.43-4.1 2.54-.29 3.77-.82 1.24 2.58 2.47-1.12 1.22.26 3.11 4.61 1.1 6.98-8.26-.02-2.87-3.35-.22-4.73-4.1z" class="mainland"/><path d="m183.53 531.44-.53 2.38-1 1 .69 1.23 1.75-.69.84-1.46-.54-1.54-1.2-.92z"/></g><g class="c-bg"><path d="m462.56 363.3-4.84-.17-3.07 1.87-.04 1.4 1.99 1.87 6.18 1.04-.22-6.01z" class="mainland"/><path d="m452.24 364.04-1.31.44 1.3.23.6.69.71-.85-.7-1.22zM452.8 365.8l-1.87.82-.64 1.12.64.72 2.36-.88 1.14-.75z"/></g><g class="c-bg"><path d="M402.57 416.32h-11.02l-2.22-1-1.07.08-1.3 2.7.46 2.77 4.2.39.54 1.77-1.83 10.33.08 1.85 2.98 1.61 3.44.24 6.88-1.7 3.36-4.23.08-4.31 5.97-5.4.3-2.38-5.43-.08-5.43-2.64z" class="mainland"/><path d="m374.27 458.44-1.52.88.7.7.81-1.58zM369 458.6l-1.87.48.94 1.42h1.4l-.46-1.9zM364.55 457.2l-1.18 1.17 1.65 1.42.93-2.12-1.4-.48zM413.58 426.88l-1.38.46.3 1.24h2l.83-.93-1.75-.77z"/></g><g class="c-bg"><path d="m281.2 678.4-2.28-.26-2.26 1.52 1.64 1.79 2.9-3.06zM283.46 677.25l-.75 2.41-2.15 1.9.13.63 3.66-1.4 1.51-1.9-2.4-1.64z"/></g><g class="c-bg"><path d="m412.97 393.59-1.9.47-3.83 4.15-1.15.08-1.53-1.08-.99.23-.76 2.39-5.58.15.15 1.24 3.82 2.54 4.44 3.55-.08 4.23-2.37 4.16 5.13 2.46 5.2.16 1.6-1.85 3.3.07.9.85 3.3-.23 1.68-2.16-2.14-2.54-.16-1.62.46-1.77-1.07-1.54-1.84.54-.23-1.39 4.06-4.47v-2.7l-2.35-.76-1.43-.99-6.63-4.17z" class="mainland"/><path d="m276.16 517.29 5.06 3.15-2.65 5.25-.95 1.21-2.81-1.61.08-5.66 1.27-2.35zM540.02 586.93l-1.97.13-.13 1.72 1.32.27 1.97-.92-1.19-1.2zM516.86 562.67l.65 1.46h1.06l.52-1.86-2.23.4zM258.82 489.82l-.91.85.68 1.38 1.3-.38-1.07-1.85zM428.04 418.02l-1.69 1.7-.15 1.53 1.37.85.54-.08.3-2.24-.37-1.76zM254.1 484.07l-1.3.53.46 1.15 1.52-1-.3-.3-.38-.38z"/></g><g class="c-bg"><path d="m400.63 367.98-1.58 2.4.63.96h3.65v1.6l-.96 1.28.64 3.35 2.05 4 1.59 3.67 2.53.96 1.1 1.92-.15 1.75-1.58.96-.16.8 1.1.63-.94 1.28-2.23.96-4.27-.47-6.67 3.03-2.22-1.11 6.35-3.68-.8-.48-3.33-.32 2.06-3.03.32-2.56 2.7-.32-.48-4.95-3.17-.16-.95-1.11.15-3.67-1.9.15 1.9-6.39 3.5-2.56 1.12 1.11z" class="mainland"/><path d="m393.97 378.7-2.85.31-.16 2.56 1.9 1.28 2.06-.47.8-1.44-1.75-2.25z"/></g><g class="c-bg"><path d="m292.59 282.4-1.18 1.88 2.12 2.11-.94 2.12 3.06 4 3.76-1.18 4.93-.47 5.65 6.11 3.76 10.1-3.05 6.35 4.23-.7 2.35 1.4.23 3.06-5.17.24 2.82 2.81 3.53.71-7.76 10.34-.94 6.35 1.64 5.17-1.17 3.06 2.12 6.57 3.99 4.47 1.17-.23 2.59-.7.23 3.75 1.64 2.35 3.06-.23 2.35-8.7 7.05-8.7 10.58-4.22 6.58-8.23 3.05 1.4h6.35l5.17-5.16 6.34-2.58.71-4-4-3.52-3.52-1.18-1.88-4.94 4.47-2.58 7.05 3.76 2.35-2.58-3.76-2.12 8-10.81-1.41-4.7-3.76-.24 1.4-4.23 4.7-2.11 9.64-8.47-2.81-3.05-10.82.94-5.64 5.65 3.3-7.29-3.77-.94-2.11 3.76-3.06-2.58-8.46.94 2.35-3.76 13.87-.47-3.53-4.7L357 263.6l-6.1.94.23 3.06-6.35-2.12.23-2.11-4.47.94-.94 2.35 4.7 1.64-4.93 3.53-3.53-4-4.94-1.4-.7 3.76h-4.94l-1.89-4-7.75-1.17-4.23 2.11-.23 2.82-5.4-.7-3.3 1.4.24 3.3v1.64l-6.12 1.18-2.81-1.88-1.89 3.05 2.82 3.06 5.88-.7.47 1.88-4.47 2.11-4-1.9z" class="mainland"/><path d="m311.4 319.07 1.4 2.11-.7 2.59h-1.41l-1.89-2.12.47-1.64 2.13-.94zM370.16 313.19l4 1.18-.24 3.29-4.23-2.12-.94-1.18 1.4-1.17z"/></g><g class="c-bg"><path d="m427.18 522.13-.4 1.7 1.2.65 1.14-.85-.4-1.75-1.54.25zM430.77 526.7l-.05 1.2 3.92.2-.05-1.36-3.82-.04z"/></g><g class="c-bg"><path d="m453 427.21-.1 1.15 4.01 2.02 1.91.73-1 1.06-2.23.22-.32 1.01.77 1.74 2.5 1.33 1.09.1.14-2.98 1.63-1.98-4.46-5.27.6-1.79 1.04-.04 1.59 1.28 1-.5.32-1.8 3.73.54 1.13-3.24-1.95 1.38-5.73-.14-3.72 1.93-1.95 3.25z" class="mainland"/><path d="m461.69 438.44 1.4.05.6.87h2.05l1.36-.5.46.55-.9 1.2-4.01.13-.73-.96-.77-.46.54-.88z"/></g><g class="c-bg"><path d="m639.52 513.63-.24 1.97 5.87 9.86h1.7l12.24 20.46 4.89.5 2.45-7.15-3.92-2.47-.73-3.94-22.26-19.23zM697.48 540.9l1.95 2.39-1.27 3.6v.68h2.89l1.02-9 .93.27 1.7 8.21 1.6.43 1.54-3.5-1.53-5.32-1.27-2.3 4-2.92-.94-1.29-3.82 2.48h-1.02l-1.87-2.74.6-1.2 3.14-1.54 4.76 1.46 1.44-.1 3.57-3.33-1.44-1.45-3.32 2.57h-2.12l-3.23-1.54-2.29.09-2.55 4.1-1.61 7.1-.87 2.84zM718.8 524.8l-1.62 3.94 2.54 3.34h.85l1.1-2.23.6-.77-1.1-1.2-1.62-.6-.76-2.48zM723.8 537.73l-3.48.77-1.02 1.11.85 1.46 2.29-.86 1.44-.85 2.13 1.7.93-.76-1.69-2.06-1.45-.51zM666.05 548.85l-2.38 1.63.5 1.36 7.57 1.72 3.82.68 1.62 1.71 4.33.35 2.04 1.7 1.87-.42 1.7-1.54-3.15-1.46-2.71-2.3-7.06-1.72-8.16-1.7zM690.77 556.3l-1.87 1.02 1.1 1.2 2.72-1.02-1.95-1.2zM694 555.53l.33 1.62 1.95.51.76-.94-.84-1.29-2.2.1zM698.67 559.8l-2.38.35 2.13 1.8h1.7l-1.45-2.15zM699.34 556.98l-.5 1.03 3.81.6 2.98-1.72-1.7-.51-2.71.77-1.02-.85-.86.68zM711.83 557.58l-4.41 3.69.42.94 1.87-.35 2.2-2.06 4.33-.6-.85-1.45-3.56-.17zM734.13 532.45l-3.6.4-2.32 1.7.96 1.93 3.92.73v.73l-2.48 2.01 1.2 4.2 1.2.07 1.04-4.11h1.92l.8 4.02 9.37 7.75.24 6.05 3.2 3.47 1.44-.08.32-21.37-5.44-3.78-5.13 3.46-1.84 1.13-3.04-1.93-.08-6.13-1.68-.25zM690.69 519.53l-2 7.5-10.83 3.66-3.24-3.8-1.57.43 2.94 11.34 4.4.5 5.86 2.22v2.22l2.7-.5 3.9-5.42v-4.43l2.21-4.44 2.45.5-2.94-6.17-.45-3.97-3.43.36z"/></g><g class="c-bg"><path d="m423.23 409.4-.53 1.35.14 1.48 2.07 2.4 3.25-.1 7.17 8.33 4.48 1.3 2.65 2.5.63 5.69 1.42-.83 1.23-3.1-.3-2.23 2.1-.2.3-1.26-5.92-2.83-5.62-5.52-2.24-3.3-.55-3.14 2.86-.69-.73-2.06-1.75-1.48-1.52-.07-2.1.58-2 2.78-1.2.8-1.85-1.14-1.99.73z" class="mainland"/><path d="m440.67 431.9-1.26-.68-4.27.68.14 1.16 3.85 1.93.58.63 1.01.15-.05-3.87zM427.8 423.57l-2.28 1.15.3 4.47 1.83.31 1.38-1.3v-4.24l-1.22-.4z"/></g><g class="c-bg"><path d="m709.32 426.2-1.41 1.41.58 2 1.23.08.83 4.33 1 1.08 1.73-1.58.15-4.77-2-2.13-2.11-.43zM716.69 422.19l-2.66 2.15-.6 2.72 1.82 1.25 2.63-2.75.37-3.06z"/><path d="m713.61 418.03-4.22 4.84v2.32l2.6-.31 4.1-3.6 2.72-.5.67.78.01 2.38.69 1.25h1.26l1.76-2.16.74-2.84 3.55-.08 3.48-4.17-1.81-6.92-.83-3.66 1.81-1.5-4.13-6.24-.95-.74-1.87.74-.48 2.59v2.08l1 1.17.32 5.5-2.56 3.16-1.49-.92-1.15 2.59-.26 2.4.91 1.43-.58 1.08-1.9-1.58h-1.32l-1.16.66-.9.25zM720.73 380.4l-1.32 1.16.66 2.5 1.16 1.17-.09 3.83-1.48.58-1.16 2.58 3.39 4.66 2.23-.75.41-1.17-2.4-2.16 1.5-1.92 1.57.25 3.43 2.3.37-2.58 1.63-2.98 2.28-2.31-2.47-1.12-.95-1.8-1.23.82-1.07 1.34-2.32-.5-2.4-1.59-1.74-2.31zM733.2 377.81l-2.32 3.25.17 1.58 1.16-.5 2.72-3.41-1.73-.92zM736.26 373.07l-.83 2.24.09 1.5 1.4-.92 1.33-2.66v-1l-1.99.84z"/></g><g class="c-bg"><path d="m582.4 516.39.26 2.25 1.44.53.26-1.99-1.96-.8zM584.24 521.16l-.13 2.78 1.05.52.93-1.85-1.85-1.45zM584.5 526.6l-.92.92 1.06.93 1.31-.93-1.44-.92z"/></g><g class="c-bg"><path d="m648.36 511.8 1.74 3.9.39 5.06 2.32 3.6 5.1 3.08 1-.79 1.46-.28-.21-1.91-1.84-4.48-2.7-5.73-.23 1-3.25-.15-2.33-3.35-1.45.05z" class="mainland"/><path d="m675.53 526.9 2.6 3.01 10.02-3.46 1.98-7.65 4.46-.31 4.08-2.96-5.3-3.85-1.2-2.12-2.61 4.81.96 2.77-1.6 2.3-3-.76-7.26 5.33.18 3.08-3.31-.2z"/></g><g class="c-bg"><path d="m460.57 327.4 1.74-1.27-.15-1.43-1.1-.65.15-1.75h.95v-.96l-4.13-1.11-6.18.64-.63 2.71-1.42-.48-.96-1.6-3.01.16-.32 3.03-1.43.64-.8-1.6-6.34 5.11 1.27 1.44-2.38 1.11-5.39 10.7-1.9 1.28.16.96 1.9.96-.48 2.07-3.17-.16-.95-1.11-2.06 2.4-1.27.95-.32 2.24-1.1.64-2.86.64-1.43 4.48.95 7.35 1.1 3.35 1.28 1.28 2.85-.16 4.13-3.99 1.58-2.71.48 3.99 2.7-4.79.15-13.42 2.2-1.39.65-7.4 6.65-9.6 3.18-1.1 1.42-1.76 4.76 1.11 2.38 1.44.8-4 3.96-2.39 2.39 4.16z" class="mainland"/><path d="m437.06 285.76-1.43-1.43-3.16 1.54h-5.81l-.92 3.38 3.26 2.88 1.43-.2 2.04-3.5 1.72 1.24-1.22 2.46-.62 3.6 1.43 2.25 3.06-5.13 3.98-4.83-1.53-1.33-2.23-.93zM438.78 279.6l-2.55 2.36 1.53 2.36h2.75l1.13 1.54 3.36 1.74 3.87-2.25 2.65-2.26-.91-1.85-2.66-1.54-1.93 1.75-1.32-1.65-1.03.1-1.32 2.89-1.93-1.96-.21-1.33-1.43.1zM444.6 290.18l-2.05 1.85-1.73 1.33.82 1.44 1.63.5 2.65-1.23 1.23-1.54-1.12-1.85-1.44-.5z"/></g><g class="c-bg"><path d="m804.22 655.73.92 10.2-1.23 4.63-4.6 3.4.3 4.02v4.32l1.23 1.55 12.58-10.82v-2.47h-3.07l-4.3-14.52-1.83-.31zM795.02 677.98l2.46 4.63-6.75 6.5-.62 3.39-4.6.61-7.66 7.1-7.06-3.39-.61-2.47 12.88-5.56 11.96-10.81z"/></g><g class="c-bg"><path d="m752.13 540.18-.32 21.13 3.05-.16 4-4.68 3.36.16 2.16 1.94.72 5.96 6.88 3.64 1.76-.65v-2.18l-5.52-4.6-2.72-6.3 2.16-1.04-1.6-3.47-3.2-.08-.8-3.7-8.48-5.73-1.45-.24z" class="mainland"/><path d="m778.18 546-.82.2-.5 2.22-1.58 1.02-4.73.83.2 1.78 4.97-.25 3.16-1.97-.19-3.43-.51-.4zM776.1 540.8l-.77 1.08 4.16 3.68.57 2.16 1.13-.13.13-2.22-1.26-1.14-3.97-3.43z"/></g><g class="c-bg"><path d="m697.34 496.3-.75 1.42-.41 1.75-4.13 5.25.25 1.08 1.74-.25 5.36-6-2.06-3.24zM704.03 494.3l-.1 4.34 1.58 1.58.58 3.08 1.57.34.75-1.92-1.24-.92-.33-5.41-2.81-1.08zM708.5 495.98l-.1 3.83.92 1.5 1.57-1.84-.42-3.33-1.97-.16zM709.48 492.64l1.57 2.08.75 2h1.4l-.25-3.41-1.57-1.08-1.9.41zM712.54 500.47l.33 2.5-2.9 2.33-2.4.25-2.55 2.75.09 1.26 2.4-.76 1.64-1.08 1.41 3.58 2.48 1.75 1-.34.9-1.08-1.98-2 1.16-.91 1.32 1.08.9-1.5-.9-1.83-.16-4.08-2.74-1.92zM699.07 475.08l-2.23 1.58-.25 5 3.48 6.74 1.16.91 1.48-1 2.56.41.5 2.25 1.9.17.9-1.25-1.15-1.58-1.41-1.33-2.98-.33-1.57-2.58 1.82-2.75.16-2.41-1.24-3.08-3.13-.75zM700.23 489.98l.66 2.33 1.16.76.83-1.09-1.33-1.83-1.32-.17z"/></g><g class="c-bg"><path d="m387.5 421.72-.54 7.47-1.53 1.39.16.84 1.07 1.78-.7 2.16 1.16.39 2.68-.32-.16-2.16 1.76-10.02-.38-1.38-3.52-.15z" class="mainland"/><path d="m367.83 443.48-.93 1.19.93 1.18 1.41-.7-1.4-1.67zM337.11 426.71l-1.17 1.19 2.1 1.18.24-1.65-1.17-.72zM343.45 426l-1.41.95 1.17.94 1.88-.48-1.64-1.4zM344.38 429.31l-.7 1.9.94 1.18 1.17-.94-1.4-2.14zM350.01 433.1l-.47 1.18.7.7 1.88-1.18-2.11-.7z"/></g><g class="c-bg"><path d="m722.06 302.16 1.52 5.26 3.04.87 3.05-4.81-1.74-3.29.65-2.84h4.56l-1.09 2.18.43 7.89-6.51 16.2.64 3.5-.21 5.9 12.16 17.74 2.39.65.21-14.44 2.39-2.19-2.61-5.69 2.17-2.4-4.78-6.35-2.61.21-.87-10.5 6.74-1.75.43-3.07 3.48-.88 1.95 1.76 2.38-9.63 4.13-7 3.26-1.76 2.82.22v-3.28l-4.56-.88-6.3-5.25 3.04-3.5-2.6-5.92 2.16-2.18 2.61 3.5 6.52 2.4 7.17.66.87-3.06-3.69-3.71 4.12-5.7-9.34-3.28-2.39 4.82-3.04-3.94-17.16-5.92-16.3 2.85-2.38 1.31v1.31l3.48 1.76-.44 4.16-6.3-2.63-13.9 5.47-2.38-5.03h-9.57l-4.34 4.6-15.43-3.5-14.11 2.84-1.74 4.38 2.17.65-.21 3.29-13.69 1.53.87 4.37-12.6-2.18 3.04-5.7-12.82-.65 1.1 5.91-4.13 1.98-3.48-3.29-14.11 2.41-5.43 5.03-.22 3.06-3.47.22-.43-3.5 11.08-9.63v-6.57l-7.17-1.97-9.34 3.06-3.91-3.94h-1.74l-2.17 4.37 1.74 1.97-12.39 6.79-10.64 8.1-6.52 8.97v3.72l6.95 2.84-3.48 2.63-7.38-2.63-3.04 2.63-4.57-5.26-.87 1.98 5 15.75 1.3.44 3.48-1.75 1.74 1.31v2.85l-3.26-1.32-1.96 1.53 1.31 2.85-1.09 7.44-6.73.66-.44-2.41 3.91-2.42.87-6.57-4.34-5.68-1.53-9.85-6.94-1.1-.65 3.5 1.3 1.76-2.82 2.4 1.09 6.58 4.12 1.75.87 4.82-4.13-2.63-10.64-1.97-1.3 3.5-8.48 3.06-1.3-2.19-11.09 6.13-.21 4.16-4.35.66 1.3-3.06v-3.07l-4.34-1.52-2.83 1.1 2.39 4.6 1.73 3.05v2.41l-3.26-.65-.64-.66-3.26 3.5 1.73 3.06-7.38-.21 2.39 3.07-.65 1.3h-3.9l-2.83-1.96-.65-5.47-4.56-1.76v-2.19l9.56 1.98 5.21.44 2.17-3.29-1.95-3.5-13.9-5.47-4.8 1.19-1.64 1.41.51 3.24 2.04.35-.48 5.1 6.3 14.79-4.55 7.2-.31 1.63 2.3 1.62-2.08 1.38-1.38.03.26 6.35 1.9 2.7.03 2.63 2.45.23 3.74 1.42 3.96 5.45.04 1.43-1.28 2.2 2.95-.16 2.88.83 3.9 5.51 9.57.87-.42 6.56-3.3 2.82.69 1.1-3.26 3.51-.87 3.28 1.96 2.85 6.3 2.19 2.6-1.53 16.73 6.34.65-1.75-3.47-3.29v-4.15l-2.17-.66.43-3.5 3.48-4.16-6.24-4.67.44-6.49 6.66-4.38 7.82.44 1.31 2.41 8.04.44 5.87-3.28-3.05-3.29.65-6.13 15.2-7.44 11.7 5.27 3.9-3.5 11.52 10.94 8.7-.87 3.04 3.06 8.25.88 5.43-7.45 6.95 3.07 3.69.66 3.69-3.28-3.26-2.2 2.83-4.37 8.04 2.63 1.73 3.5 3.48.22 2.17-1.53 5.87-.22.64 1.53 6.74.44 4.56-4.81 9.35 1.1 2.82-1.1.87-5.26-2.83-6.34 2.83-2.42h8.9l8.47 10.07 10.86 6.13h3.26l.43-2.62 3.9-2.42.44 14.23-3.47.22v3.5l1.95 2.41-.36 3.13 1.44.6.87-2.2 1.3.45.87.87 3.9-.87 3.92-11.39.43-14.22-5-11.39-6.3-7.66-3.04.44v2.42l-7.38-2.85 2.82-6.13 2.39-16.2 10-3.06 4.77-3.06h5.21l-1.3 1.76 1.3 2.19 4.56-4.82 2.6.22-.42-2.85-4.14-.87 2.83-10.29 3.74-3.52z" class="mainland"/><path d="m450.1 378.29-1.29 2.4 4.67.04h.95l-.18-1.35-.73-.86zM741.14 353.25l-1.07 1.33.08 2.08 1-.09 1.65-2.9-1.66-.42zM776.8 272.3l-2.05 1.33-.48 1.7.96 1.09 2.16-.73 2.16.73 1.2.36-.12-4-3.84-.48zM488.54 272.65l1.49.6-1.05 1.8v2.54l-2.23 1.35h-2.38l-1.34-1.65.15-1.8 1.05-1.34h2.08l2.23-1.5zM494.2 271v1.8l1.48 1.2 2.08-.15 1.79-1.65V271h-1.63l-1.34.45-1.05-1.2-1.34.75zM502.68 271.15l1.05 2.25 2.08.15 1.49-.6-.75-2.1-1.93-.45-1.94.75zM511.16 268.15l-1.63-.3-1.5 1.5.75 1.35.45 2.1 1.94-1.5.45-1.64-.46-1.5zM520.24 284.05l-.45 2.1-3.43 3-7.3 1.65-5.95 9.9-1.04 2.85 5.95 1.5.9-3.59 1.78-5.55 4.62-2.4 3.87-3 2.82-1.2h1.5v-4.05l-3.27-1.2zM501.04 305.95l4.02.45 1.34 4.65 3.42 3.6-1.19 2.4h-2.08l-1.94-2.25-4.31-.15-1.8-2.4v-1.65l2.69-.76-.15-3.9zM563.86 254.8l-1.94-1.2h-2.23l-.45 1.36-2.38 1.35-1.79.6-.3 1.79 4.18.3 4.9-4.2zM568.46 255.26l-1.04 2.24-2.09-.14-3.27 2.4-.9 3h2.09l1.2-1.95 2.82 2.1 2.68-1.2 1.94-1.65-.75-2.55-1.04-1.8-1.64-.45zM572.78 256.9l1.05 4.2 1.63 3.9 1.8-3.14 3.42-.75v-2.25l-2.23-1.65-5.67-.3zM654.45 250.18l2.33 1.96 1.65-.69.48-2.74-3.39-2.34-2.23 1.47-5.42.5v2.44l-5.73.1v4l6.7 4.98 1.74-1.28-.4-3.51 4.28-1.08-.88-1.66-1.54-1.56 2.41-.59zM660.66 247.84l1.55 2.93 6.01-.68 1.65-2.15-.38-1.86-1.65-.69-1.55 1.18-4.46.98-1.17.29zM660.27 259.27l-3-.78-1.75 1.86-.77 2.54 4.07-.39 3.1-1.56-1.65-1.67zM738.23 242.37l-2.52-.78-2.9 1.07-1.46 2.15 1.84 2.45 4.85-2.15.97-1.07-.78-1.67zM739.16 358.33v3.66l1.15.42.83-1.33v-2.83l-1.98.08zM705.35 345.09l-.08 5.33 6.7 10.33 2.39 8.99 4.22 8 1.65.57 1.4-1.16.66-1.92-6.03-6.58.16-3.42 1.33-.57.32-2-11.81-16.74-.91-.83zM751.97 328.52l-1.65.16 1 1.42 2.06 1.42.58-.67-2-2.33zM755.18 329.52l.25 1.42 2.56.75.25-1-3.06-1.17zM769.23 334.96l1.08 1.93 1.8-.12.36-1.33-3.24-.48zM787.36 337.98l1.44 2.66 1.08-1.2v-1.82l-2.52.36z"/></g><g class="c-bg"><path d="m783.79 549.88 1.07 2.98 1.89 1.84.57-.5-.19-1.98-2.14-2.6-1.2.26zM789.02 554.32l.13 1.97 1.2 1.15 1.13-.7-1.01-2.1-1.45-.32zM790.53 559.22l-1.01 1.08 1.07 1.97 1.26.38-.06-1.33-1.26-2.1zM793 558.08l.87 2.16 1.7 2.03.95-1.52-1.26-2.17-2.27-.5zM797.4 561.32l.51 2.67 1.2 1.65 1.01-2.1-2.71-2.22zM798.8 567.3l-.45.75 1.45 1.91 1.02.06-.64-2.48-1.39-.25zM795.58 571.1l-1.52.7 1.33 1.84 1.13-.64-.94-1.9z"/></g><g class="c-bg"><path d="m535.68 548.87-.53 1.06 1.44 1.2 1.06-1.2-1.97-1.06zM543.05 540.92l-1.58 1.06 1.18 1.86h1.59l-1.2-2.92zM543.7 545.56l-1.05 1.2.79 1.18 1.44.27.13-2.52-1.3-.13z"/></g><g class="c-bg"><path d="m445.23 329.52 1.7 1.56h3.17l1.74 3.36.48 5.74-4.28 3.04v3.03l-3.01 4.16-1.75.15-2.38 4 .16 3.84 4.12 3.03-.32 1.76-1.58 2.4-2.38 2.07.16 6.87-3.65 1.28-1.27 2.71h-1.75l-.95-4.79-3.97-6.08 3.26-5.46.23-13.47 2.25-1.24.54-7.71 6.4-9.17 3.08-1.08z" class="mainland"/><path d="m445.9 368.93-1.83 1.44.92 2.12 1.62-1.58-.71-1.98z"/></g><g class="c-bg"><path d="m421.91 530.55 1-.5.74.6-.75 1.15-.9-.35-.09-.9zM423.9 527.4l1.5-.25.5.95-.74.8-.74-.1-.51-1.4z"/></g><g class="c-bg"><path d="m258.82 496.58-1.06.77.84 1.54 1.37-.77-1.15-1.54zM257.53 499.57l-1 1 .38.6h1.22l.38-1-.98-.6z"/></g><g class="c-bg"><path d="m811 582.48-1.07 1.43.45 1.62.54.36.98-1.26-.9-2.15zM811.54 586.88l.09 1.17 1.16.36.8-.45-.8-1.26-1.25.18zM813.24 597.3l-.54.82.8.9 1.34-.46-1.6-1.26z"/></g><g class="c-bg"><path d="m509.43 489.13 1.25 3.7v3.61l2.99 2.72 21.07-8.59.2-2.36-3.38-6.06-8.48 2.7-4.87 4.8-5.64-3.35-3.14 2.83z" class="mainland"/><path d="m533.32 498.14 1.84 2.06 2.49-1.5.9-.31-1.15-1.1-2.19.64-1.9.2z"/></g><path id="ae" d="m528.47 468.14.75 3 8.52.75.6-6.17 1.64-.9.45-2.25-2.69.75-2.99 4.52-6.28.3z" class="c-active"/><path id="ma" d="M402.5 439.9h-9.98l-1.95 4.34-4.5 2.17-3.72 10.06-7.25 4.35-10.17 16.76 9.98-.2.4-4.93h2.53v-6.7h8.81l.2-8.69 8.42-1.97 3.52-5.72 5.48-.2-1.76-9.27z" class="c-active"/><path id="sa" d="m519.81 458.02 6.06 8.44 1.96 1.56.87 3.79 9.33.73 1.05.55-1.04 4.67-6.13 3.61-8.97 2.72-4.78 4.67-5.68-3.31-3.44 3-4.79-7.82-3.28-1.5-1.2-1.8v-3.93l-11.95-14.45-.45-2.56h3.44l4.19-3.6.14-1.82-1.19-1.2 2.4-1.95 5.08.3 8.67 7.23 5.12-.23.32 1.26 4.27 1.64z" class="c-active"/><g class="c-active"><path d="m151.77 281.18 1.72 2.6.86 3.48 4.3 1.08 3.02-3.25 2.59 1.3 7.32.65 5.17-2.17.86 7.16h3.02V289l3.02.21 7.53 8.9 4.96 3.03-2.59 4.13 1.08 1.08 9.68 1.95.21 4.34 2.59.43.65-6.5 4.09-1.09 3.01 4.56 6.46 3.03 3.23.65 2.15-2.6.22-4.13 3.87-2.38 1.3 3.47-3.46 6.08.43 3.03 1.94-3.03 3.87-3.48.22-4.55-2.15-3.48.65-2.82 5.17-2.6 2.36 1.74.44 15.19 3.65-3.25 2.16 1.3-3.02 5.2 3.87.87 5.6-8.68 4.74 4.99-1.94 8.9-4.73 2.6-4.52-2.17-8.18 1.73.86 2.82-2.15 3.48-6.67 1.52-7.54 5.86-6.67 8.9-.87 2.81 4.52 1.74 1.72 4.34 6.25 6.3 9.9 4.33-2.15 9.98-.22 2.81 2.59 1.74 3.45-4.56.43-8.68 5.38-.21 2.59-4.99.43-7.59 6.89-13.45 8.6 3.04 4.53 6.29-1.94 6.3 3.45 1.94 8.4-5.64 2.36 15.4 7.76 9.33.21 4.77-8.6 2.17-4.1 4.34-8.6-1.95-4.3-.22-7.54 5.86 4.52-1.08 5.6-1.08 1.08 1.3-1.5 4.77.21 4.34 2.59 1.74 2.58-.65 1.3-1.95h1.72l-2.8 5.2-5.4.22-2.36 3.48h-3.02l-.86-2.6 4.3-4.35-5.16 1.74-.24-7.37-1.48-.87-4.52 1.96-.44 3.69h-10.33L235.1 409l-11.84 3.9-1.29-1.73 5.97-8.9-3.4-3.27-2.14-4.13-4.39-3.34-4.7-.4-8.43-5.9-61.12-10.04-1-4.14-5.61-5.2v-4.34l.86-3.91-.43-2.17-2.15-2.17-.43-3.48 5.6-3.9-3.45-18.66-4.74-.21-4.3-5.65 23.65-40.18z" class="mainland"/><path d="m130.68 350.12-1.47 2.82.51 2 .96.59-.22.81-1.03.3.3 2.96 1.1 1.11.88-.95-1.1-2.9.65-2.29 1.62-2.15-1.18-2-1.02-.3zM135.54 367l-1.32.53 2.43 2.82.59 3.33 2.42 2.6 2.06-.38v-3.4l-2.5-1.56-3.68-3.93zM268.15 295.83l-1.53 1.55 1.34 2.13 6.33.77-4.03-4.26-2.11-.19zM191.1 270.14l.2 3.48-6.9 7.15 1.73 5.79 4.98-1.35 2.87-4.25 7.28-2.71 5.94-.39-4.6-5.02-2.3 1.74-1.73-.58-.96-2.13-2.1-2.12-4.4.4zM200.11 259.9l-1.53 2.71 7.48 2.71 2.68-4.05 1.15 2.7h1.92l3.64-4.05-4.41-1.16-1.73-1.35-2.3 2.32-6.9.18zM213.15 265.32l-5.94 2.5v1.93l7.67 2.9-1.73 1.93 1.15 2.5 4.79-2.12h4.02l1.92 3.09 3.26-3.29-.77-3.1-2.68.97-.38-3.86 1.34-2.32h-1.34l-2.1 1.35-.97.77.58 2.7-1.53 1.17-2.3-.2-.57-3.47-4.42-3.45zM221 259.33l-.57 1.93 3.63 1.73 2.68-1.54-.19-1.16-5.55-.96zM223.88 256.04l-2.68.97.19 1.35 5.93-.39-.19-1.35-3.25-.58zM236.72 259.33l-.38 1.35-.96 1.35v1.93l3.64-.58 3.83 3.28h1.34v-3.28l-3.83-4.26-3.64.2zM246.5 263.2l1.53 1.73-1.34 2.31.96 2.51 4.21-2.32v-1.73l-2.49-2.9-2.87.4zM252.06 258.75l.19 3.09h5.17l1.34 1.15-.19 1.35-4.6.58 3.26 4.45 4.41.77 6.13-2.71-8.82-13.33-2.68 1.74.2 2.31-3.08-1.15-1.33 1.75zM207.4 280.58l-7.28 1.92-4.22 3.68.38 4.05 7.67 2.32-1.73 3.86-5.56-3.48-1.53 2.9 3.64 2.5-.19 4.06 5.56 1.55 6.7-.39 1.16-2.13 4.98 5.6 3.44-1.15.58-3.87 2.5 1.74.37-3.86-3.06-1.93.19-12.16-2.68-2.13-2.87 3.87-8.05-6.95zM230.78 289.07l-2.49-1.16-1.34 1.74 2.68 4.26.2 4.05 5.74-3.48v-5.02l2.11-2.12-2.1-1.55h-3.46l-1.34 3.28zM243.05 287.33l-4.03 3.29.96 4.05h2.49l1.15-2.12 1.73 1.73 1.73-.18 4.6-3.87-8.63-2.9zM242.66 280.96l-.96 1.92 4.22 1.55 1.15-1.74-4.41-1.73zM240.17 273.62l-4.22.58-2.49 2.31 4.6.2-1.34 3.47.96 1.54 1.34-.19 3.26-5.2-2.11-2.71zM247.46 272.27l-2.3.77.38 3.09 3.83 2.5.19 1.93-1.15 1.16.58 3.86 14.75 4.83 4.03 1.34 4.03-3.47-4.8-3.86-4.4 1.15-6.13-.58-2.3-2.31-.58-6.37-3.83-1.93-2.3-2.11z"/><path d="m259.52 292.36-4.21-.4-4.98 1.93-2.68 3.67.77 10.04 8.23.4 7.86 3.86 5.56 6.37 4.22-.2-1.15 5.99-3.83 6.37-4.22 1.93-3.07-.58-1.53-1.35-2.3 3.09.96 3.08 3.26.2 4.03-1.94 3.45 8.89 8.62 5.6 5.94-7.53-4.98-8.1 2.88-3.29 4.03 6.76 7.28-6.37-1.34-2.9-4.98 1.55-3.45-9.47 3.26-5.4-6.52-6.95-3.64 2.5-3.45-7.52-7.27.97-1.92-9.08-5.94 4.06-.58 5.02h-3.26l.38-4.44 4.57-6.76zM262.02 274v1.74l-4.22.97 1.15 1.93 4.8 1.93 5.36.58 3.83 2.7 3.83-2.13-2.68-2.7h3.45l2.1-2.32 5.18-.77v-1.15l-2.87-1.93.38-2.13 8.04 1.35 11.89-4.63-4.41-1.35 1.15-1.55h9.2l1.53-1.55-18.6-6.57-4.4-1.54-4.8 3.47-5.36-4.44-2.88-.19-.58 3.68-3.64-3.29-4.22 1.35.77 2.13 6.33 1.35-.38 3.08 3.45 2.13 8.44-2.13.19 2.9-6.9 3.28-4.22-3.28-3.83.39 3.83 5.4-1.92.98-2.88-2.51-2.1 1.35 1.92 3.66h3.25l-.76 3.48-2.68-.4-3.45-3.66-2.29.4zM244.94 327.16l-3.66 4.6-.22 5.06 3.2-1.84h3.88l2.74 2.53 2.51-2.07-8.45-8.28zM289.47 386.98l-9.14 8.74.92 2.08 11.18 4.14 1.6-2.76-.92-4.6-3.65.46-2.06-2.3 3.42-3.45-1.35-2.31z"/></g><g class="c-active"><path d="m143.59 375.99-.87 3.47-3.01-1.95h-1.5l-.87 3.7-10.56 23.64 2.8 20.6 3.45 1.74.65 5.65h7.1l6.9 5.2 13.56 1.3 1.5 6.95 2.15 1.52 3.02-3.03 2.37 1.08 2.15 9.97 3.66 2.39 3.01-5.65 9.26-6.72 6.03 2.81 5.17.44.21-3.25 10.76.21 2.16 2.4.43 5.41-1.29 3.03 1.5 5.2h3.24l3.23-4.98-1.29-2.39-1.29-5.2 1.94-5.86 8.83-7.59 6.67-1.95-.87-6.3 9.26-9.98 9.26-1.52-1.5-5.2 9.04-5.2V399l-.87-.43-3.23 1.08-.43 4.25-10.75.13-8.42 5.6-13.21 4.32-2.11-2.59 6-9.07-2.97-2.83-2.01-3.84-4.18-3.35-4.53-.38-8.58-5.85-60.97-10.04z" class="mainland"/><path d="m74.8 285.23 2.98 5.6 1.92-.43v-1.94l-4.9-3.23zM57.93 334.43l-.15 2.6 1.87-.43v-1.16l-1.72-1.01zM55.06 335.59l-3.74 1.88.58 2.02 1.44-1.16 2.87-1.3-1.15-1.44zM39.54 338.04l-2.58-.58-.44 1.16.29 2.17 2.73-2.75zM34.08 337.9l-2.45-1-.86 1.58 1.58 1.6 1.73-2.18zM95.49 277.92l-7.26 1.72 1.5 8.17 7.9 2.15.41 1.72-11.73 3.66-6.6 10.96 2.33 11.6 3.84 2.58 3-2.79.85 1.72-3.63 4.3-14.08 6.45-8.97 2.15-.21 3.22 20.7-6.01 8.52-2.37 7.9-9.68 8.74-5.8-4.48 7.53 4.91.64 8.33-3.65 1.5 6.01 5.75 1.3 5.97 5.8.43 4.29-.86 1.07 1.07 4.08h1.5l.2-6.88h1.71l.42 16.98 4.28-3.66-3-17.63h-4.47l-4.91-6.23 24.1-40.84-23.89-18.7-26.67 5.16-1.06 8.17 5.76 3.44-2.14 5.6-7.67-6.23z"/></g><path id="ci" d="m388.48 521.56 3.7-2.61 4.6-.81 4.7 1.01-2.4-3.62-.7-2.21.7-6.55-4.2.2-1.9-1.81-3.99.1-1.9.3.2 4.43-1 .4-1.2 2.22 3.09 3.62.3 5.33z" class="c-pipeline"/><path id="eg" d="m466.16 449.22 2.3.06 4.5 1.25 2.14.06 2.64-2.21h1.24l2.25 1.24h2.84l.51-.03 1.8 5.17.51 1.66.48 2.5-.85.62-1.46-.73-1.69-5.5-1.52-.1-.11 1.86 1.01 3.23 8.1 10.03.17 4.3-2.36 2.73-22.16-.26-.34-25.88z" class="c-pipeline"/><path id="gh" d="m399.1 513.18.96 2.27 2.52 3.96 1.4-.05 3.82-2.17-.27-12.36-2.95-.86-4.14.11-1.35 9.1z" class="c-pipeline"/><path id="ng" d="m413.98 515.18 3.4.17 4.08 4.56 1.99.54 1.56-.76 2.36-.33.8-3.3 3.23-2.12 3.5-.16 6.4-11.77-.11-2.65-2.96-2.27-5.91 2.6-7.91-.11-3.77-2.39-2.69.6-1.4 2.44-.1 6.88-2.26 3.2-.2 4.87z" class="c-pipeline"/><path id="sn" d="m372.42 498.77-5.79-.14 1.07 2.6.6-1.6 7.27.76.8-.03 3.41.12.12-1.5-3.1-3.74-3.48-4.7-2.15-.89-1.66.42-3.4 2.48-.78 1.38-.24 1.38 1.25.9 4.19-.06 2.69-.73.3 1.33-.24 1.74z" class="c-pipeline"/><path stroke="#c09a53" stroke-dasharray="3 3" stroke-width=".4" d="m534.4 467.2-21.2-5.2M534.4 467.2 384.6 455M534.4 467.2 209.7 330M534.4 467.2 193.3 400" opacity=".25"/><path stroke="#8b9daf" stroke-dasharray="2 3" stroke-width=".3" d="m534.4 467.2-55.8-9.2M534.4 467.2l-106.8 41.6M534.4 467.2l-131 44.5M534.4 467.2l-161.9 28.2M534.4 467.2l-141.1 46.2" opacity=".15"/><circle cx="534.4" cy="467.2" r="16" fill="url(#glow-a)" filter="url(#blur-g)"/><circle cx="534.4" cy="467.2" r="5" fill="#c09a53"/><circle cx="534.4" cy="467.2" r="9" fill="none" stroke="#c09a53" stroke-width=".8" opacity=".4"><animate attributeName="r" dur="3s" repeatCount="indefinite" values="9;14;9"/><animate attributeName="opacity" dur="3s" repeatCount="indefinite" values="0.4;0;0.4"/></circle><text x="534.4" y="455.2" fill="#c09a53" font-family="DM Sans, sans-serif" font-size="8" font-weight="600" text-anchor="middle">UAE ★</text><circle cx="513.2" cy="462" r="12" fill="url(#glow-a)" filter="url(#blur-g)"/><circle cx="513.2" cy="462" r="3.5" fill="#c09a53"/><text x="513.2" y="450" fill="rgba(255,255,255,0.75)" font-family="DM Sans, sans-serif" font-size="7.5" font-weight="500" text-anchor="middle">Saudi Arabia</text><circle cx="384.6" cy="455" r="12" fill="url(#glow-a)" filter="url(#blur-g)"/><circle cx="384.6" cy="455" r="3.5" fill="#c09a53"/><text x="384.6" y="445" fill="rgba(255,255,255,0.75)" font-family="DM Sans, sans-serif" font-size="7.5" font-weight="500" text-anchor="middle">Morocco</text><circle cx="209.7" cy="330" r="12" fill="url(#glow-a)" filter="url(#blur-g)"/><circle cx="209.7" cy="330" r="3.5" fill="#c09a53"/><text x="229.7" y="328" fill="rgba(255,255,255,0.75)" font-family="DM Sans, sans-serif" font-size="7.5" font-weight="500">Canada</text><circle cx="193.3" cy="400" r="12" fill="url(#glow-a)" filter="url(#blur-g)"/><circle cx="193.3" cy="400" r="3.5" fill="#c09a53"/><text x="178.3" y="405" fill="rgba(255,255,255,0.75)" font-family="DM Sans, sans-serif" font-size="7.5" font-weight="500" text-anchor="end">United States</text><circle cx="478.6" cy="458" r="2.5" fill="#8b9daf" opacity=".7"/><circle cx="478.6" cy="458" r="5.5" fill="none" stroke="#8b9daf" stroke-dasharray="1.5 1.5" stroke-width=".4" opacity=".3"/><text x="478.6" y="472" fill="#8b9daf" font-family="DM Sans, sans-serif" font-size="6.5" text-anchor="middle">Egypt</text><circle cx="427.6" cy="508.8" r="2.5" fill="#8b9daf" opacity=".7"/><circle cx="427.6" cy="508.8" r="5.5" fill="none" stroke="#8b9daf" stroke-dasharray="1.5 1.5" stroke-width=".4" opacity=".3"/><text x="427.6" y="524" fill="#8b9daf" font-family="DM Sans, sans-serif" font-size="6.5" text-anchor="middle">Nigeria</text><circle cx="403.4" cy="511.7" r="2.5" fill="#8b9daf" opacity=".7"/><circle cx="403.4" cy="511.7" r="5.5" fill="none" stroke="#8b9daf" stroke-dasharray="1.5 1.5" stroke-width=".4" opacity=".3"/><text x="389" y="508" fill="#8b9daf" font-family="DM Sans, sans-serif" font-size="6.5" text-anchor="end">Ghana</text><circle cx="372.5" cy="495.4" r="2.5" fill="#8b9daf" opacity=".7"/><circle cx="372.5" cy="495.4" r="5.5" fill="none" stroke="#8b9daf" stroke-dasharray="1.5 1.5" stroke-width=".4" opacity=".3"/><text x="360" y="493" fill="#8b9daf" font-family="DM Sans, sans-serif" font-size="6.5" text-anchor="end">Senegal</text><circle cx="393.3" cy="513.4" r="2.5" fill="#8b9daf" opacity=".7"/><circle cx="393.3" cy="513.4" r="5.5" fill="none" stroke="#8b9daf" stroke-dasharray="1.5 1.5" stroke-width=".4" opacity=".3"/><text x="379" y="522" fill="#8b9daf" font-family="DM Sans, sans-serif" font-size="6.5" text-anchor="end">Ivory Coast</text><circle cx="50" cy="690" r="4" fill="#c09a53"/><text x="60" y="693.5" fill="rgba(255,255,255,0.45)" font-family="DM Sans, sans-serif" font-size="8">Active Markets</text><circle cx="165" cy="690" r="3" fill="#8b9daf" opacity=".7"/><circle cx="165" cy="690" r="5.5" fill="none" stroke="#8b9daf" stroke-dasharray="1.5 1.5" stroke-width=".4" opacity=".3"/><text x="177" y="693.5" fill="rgba(255,255,255,0.45)" font-family="DM Sans, sans-serif" font-size="8">Expansion Pipeline</text><circle cx="310" cy="690" r="5" fill="#c09a53"/><text x="306.5" y="693" fill="#0b1215" font-family="DM Sans, sans-serif" font-size="6" font-weight="700" text-anchor="middle">★</text><text x="322" y="693.5" fill="rgba(255,255,255,0.45)" font-family="DM Sans, sans-serif" font-size="8">Headquarters</text></svg>